<?xml version="1.0" encoding="UTF-8"?>
<svg xmlns="http://www.w3.org/2000/svg" xmlns:xlink="http://www.w3.org/1999/xlink" width="3000pt" height="2999.999989pt" viewBox="0 0 3000 2999.999989" version="1.2">
<defs>
<clipPath id="clip1">
  <path d="M 965 1591.476562 L 2381 1591.476562 L 2381 2997 L 965 2997 Z M 965 1591.476562 "/>
</clipPath>
<clipPath id="clip2">
  <path d="M 1058 803 L 2382.375 803 L 2382.375 2980.160156 L 1058 2980.160156 Z M 1058 803 "/>
</clipPath>
<clipPath id="clip3">
  <path d="M 945 341 L 2382.375 341 L 2382.375 2911 L 945 2911 Z M 945 341 "/>
</clipPath>
<clipPath id="clip4">
  <path d="M 1706 2994 L 1712 2994 L 1712 2999.449219 L 1706 2999.449219 Z M 1706 2994 "/>
</clipPath>
<clipPath id="clip5">
  <path d="M 1742 2977 L 1745 2977 L 1745 2980.160156 L 1742 2980.160156 Z M 1742 2977 "/>
</clipPath>
<clipPath id="clip6">
  <path d="M 1744.257812 2980.160156 L 1742.0625 2979.601562 L 1744.257812 2977.964844 Z M 1744.257812 2980.160156 "/>
</clipPath>
<clipPath id="clip7">
  <path d="M 1744.605469 2978.394531 L 1742.496094 2975.941406 L 1741.675781 2979.730469 L 1743.828125 2982.183594 Z M 1744.605469 2978.394531 "/>
</clipPath>
</defs>
<g id="surface1">
<g clip-path="url(#clip1)" clip-rule="nonzero">
<path style=" stroke:none;fill-rule:evenodd;fill:rgb(35.289001%,61.178589%,85.488892%);fill-opacity:1;" d="M 965.0625 1604.175781 C 984.738281 1606.15625 1004.539062 1604.304688 1024.558594 1598.667969 C 1031.105469 1597.289062 1037.175781 1594.964844 1042.769531 1591.777344 C 1042.769531 1592.554688 1042.769531 1593.371094 1042.769531 1594.230469 C 1042.769531 1611.882812 1039.066406 1626.5625 1031.75 1638.316406 C 1023.65625 1650.800781 1014.097656 1657.046875 1003.078125 1657.046875 C 992.789062 1657.046875 983.960938 1650.800781 976.644531 1638.316406 C 970.097656 1628.847656 966.222656 1617.4375 965.0625 1604.175781 Z M 1744.257812 2977.964844 L 1742.0625 2979.601562 L 1712.273438 2996.695312 L 1742.582031 2910.71875 L 1744.257812 2910.203125 L 2380.179688 2540.429688 L 2380.179688 2608.191406 L 1744.257812 2977.964844 "/>
</g>
<g clip-path="url(#clip2)" clip-rule="nonzero">
<path style=" stroke:none;fill-rule:evenodd;fill:rgb(55.688477%,77.648926%,92.939758%);fill-opacity:1;" d="M 1125.429688 2362.96875 L 1058.183594 2402.664062 L 1058.183594 1580.195312 C 1072.089844 1568.316406 1084.058594 1554.066406 1094.003906 1537.488281 C 1097.316406 1536.371094 1100.632812 1535.078125 1103.90625 1533.613281 C 1112.429688 1529.050781 1119.574219 1523.539062 1125.429688 1517.082031 Z M 1058.183594 1153.941406 L 1058.183594 989.179688 L 1075.535156 999.382812 C 1068.902344 1019.015625 1065.113281 1039.464844 1064.253906 1060.816406 C 1063.132812 1076.230469 1062.960938 1091.300781 1063.695312 1105.980469 C 1064.039062 1120.703125 1062.574219 1135.210938 1059.300781 1149.546875 C 1058.871094 1151.011719 1058.527344 1152.476562 1058.183594 1153.941406 Z M 1744.257812 2980.160156 L 1744.257812 2977.964844 L 2380.179688 2608.191406 L 2380.179688 2540.429688 L 1744.257812 2910.203125 L 1744.257812 1239.355469 L 1776.765625 1156.695312 L 2382.375 803.453125 L 2382.375 2609.3125 L 1744.257812 2980.160156 "/>
</g>
<g clip-path="url(#clip3)" clip-rule="nonzero">
<path style=" stroke:none;fill-rule:evenodd;fill:rgb(89.7995%,95.689392%,98.81897%);fill-opacity:1;" d="M 1764.625 970.453125 L 1662.675781 1031.585938 L 1764.625 1091.125 L 1867.128906 1031.585938 Z M 945.773438 1522.035156 L 945.773438 1449.019531 C 967.34375 1447.46875 988.265625 1442.042969 1008.585938 1432.789062 L 1008.585938 1450.957031 L 979.914062 1484.019531 C 968.117188 1496.460938 956.753906 1509.160156 945.773438 1522.035156 Z M 1075.535156 999.382812 L 1058.183594 989.179688 L 1058.183594 1153.941406 C 1056.289062 1162.207031 1055.167969 1170.816406 1054.867188 1179.855469 C 1054.523438 1189.414062 1053.964844 1198.929688 1053.230469 1208.488281 C 1052.5 1242.28125 1048.625 1275.175781 1041.652344 1307.117188 C 1040.917969 1310.433594 1040.1875 1313.75 1039.457031 1317.0625 C 1041.652344 1301.996094 1040.1875 1287.097656 1035.019531 1272.417969 C 1023.65625 1241.207031 1018.875 1207.753906 1020.726562 1172.109375 L 1021.804688 1160.570312 C 1023.269531 1128.238281 1022.191406 1095.519531 1018.488281 1062.453125 C 1015.5625 1035.289062 1010.957031 1008.640625 1004.710938 982.550781 C 1003.25 975.574219 1001.054688 969.332031 998.125 963.820312 C 998.125 963.089844 997.910156 962.359375 997.566406 961.625 C 996.835938 960.894531 996.273438 960.164062 995.929688 959.429688 C 994.8125 956.460938 992.398438 954.265625 988.742188 952.800781 C 988.394531 952.800781 987.835938 952.628906 987.105469 952.242188 C 985.640625 951.507812 983.960938 950.21875 982.152344 948.410156 C 982.886719 947.675781 983.789062 947.117188 984.910156 946.730469 C 991.882812 941.21875 1001.957031 939.195312 1015.21875 940.660156 C 1028.433594 943.242188 1041.480469 942.898438 1054.308594 939.582031 L 1054.867188 939.582031 L 1125.945312 920.296875 L 1092.882812 962.1875 L 1092.367188 961.625 L 1092.367188 962.1875 C 1085.519531 974.199219 1079.925781 986.597656 1075.535156 999.382812 Z M 1200.339844 560.984375 C 1197.285156 571.832031 1194.355469 583.585938 1191.558594 596.246094 C 1186.390625 615.746094 1180.320312 632.625 1173.347656 646.960938 L 1172.789062 646.960938 C 1170.289062 647.089844 1162.929688 647.820312 1150.746094 649.15625 C 1149.539062 649.285156 1148.160156 649.457031 1146.613281 649.714844 L 1094.5625 622.160156 Z M 1776.765625 1156.695312 L 1405.355469 939.84375 C 1416.375 933.730469 1427.183594 927.226562 1437.859375 920.296875 C 1451.808594 911.125 1465.238281 901.570312 1478.113281 891.625 C 1491.328125 880.988281 1501.230469 867.773438 1507.859375 851.972656 C 1521.808594 820.371094 1528.785156 787.308594 1528.785156 752.78125 C 1548.976562 737.714844 1567.703125 723.203125 1585.011719 709.210938 C 1592.714844 702.238281 1597.667969 694.53125 1599.863281 686.09375 C 1616.050781 630.601562 1620.054688 572.222656 1612.003906 510.828125 C 1604.210938 454.042969 1594.394531 397.558594 1582.511719 341.375 L 2382.375 803.453125 Z M 1742.582031 2910.71875 L 945.773438 2444.550781 L 945.773438 1600.863281 C 952.1875 1602.367188 958.605469 1603.488281 965.0625 1604.175781 C 966.222656 1617.4375 970.097656 1628.847656 976.644531 1638.316406 C 983.960938 1650.800781 992.789062 1657.046875 1003.078125 1657.046875 C 1014.097656 1657.046875 1023.65625 1650.800781 1031.75 1638.316406 C 1039.066406 1626.5625 1042.769531 1611.882812 1042.769531 1594.230469 C 1042.769531 1593.371094 1042.769531 1592.554688 1042.769531 1591.777344 C 1043.113281 1591.433594 1043.460938 1591.175781 1043.847656 1590.917969 C 1048.839844 1587.558594 1053.621094 1583.984375 1058.183594 1580.195312 L 1058.183594 2402.664062 L 1596.546875 2716.210938 L 1596.546875 2073.660156 L 1597.109375 2073.660156 L 1597.109375 2020.230469 L 1596.546875 2020.230469 L 1596.546875 1662.039062 L 1597.109375 1662.039062 L 1597.109375 1608.570312 L 1596.546875 1608.570312 L 1596.546875 1507.742188 L 1597.109375 1507.742188 L 1597.109375 1454.828125 L 1596.546875 1454.828125 L 1596.546875 1431.667969 L 1597.109375 1431.667969 L 1597.109375 1378.757812 L 1596.546875 1378.757812 L 1596.546875 1299.414062 L 1203.957031 1074.035156 C 1201.589844 1065.46875 1198.921875 1056.988281 1195.949219 1048.675781 C 1221.652344 1046.136719 1244.640625 1035.632812 1264.832031 1017.292969 C 1276.585938 1006.269531 1289.628906 997.058594 1303.96875 989.738281 C 1306.59375 988.40625 1309.261719 987.113281 1311.933594 985.863281 L 1744.257812 1239.355469 L 1744.257812 2910.203125 Z M 1873.199219 779.214844 L 1771.253906 718.597656 L 1668.746094 779.214844 L 1668.746094 894.378906 L 1771.253906 954.4375 L 1873.199219 894.378906 L 1873.199219 779.214844 "/>
</g>
<path style=" stroke:none;fill-rule:evenodd;fill:rgb(15.289307%,31.369019%,65.489197%);fill-opacity:1;" d="M 1442.292969 1982.734375 L 1442.292969 1929.304688 L 1391.019531 1900.074219 L 1391.019531 1951.347656 Z M 1520.519531 2028.496094 L 1520.519531 1976.707031 L 1468.167969 1945.835938 L 1468.167969 1997.628906 L 1518.882812 2028.496094 Z M 1148.550781 2074.777344 L 1594.351562 2334.898438 L 1594.351562 2305.105469 L 1148.550781 2044.46875 Z M 1287.433594 1893.488281 L 1287.433594 1841.136719 L 1237.28125 1811.34375 L 1237.28125 1863.695312 Z M 1159.570312 1767.257812 L 1159.570312 1817.414062 L 1209.726562 1848.839844 L 1209.726562 1796.492188 Z M 1313.867188 1854.910156 L 1313.867188 1907.824219 L 1365.660156 1937.570312 L 1365.660156 1885.738281 Z M 1148.550781 1722.097656 L 1594.351562 1982.214844 L 1594.351562 1951.347656 L 1148.550781 1691.226562 Z M 1442.292969 1571.113281 L 1442.292969 1517.644531 L 1391.019531 1487.894531 L 1391.019531 1540.246094 Z M 1365.660156 1525.910156 L 1365.660156 1474.675781 L 1313.867188 1443.25 L 1313.867188 1496.160156 Z M 1287.433594 1481.824219 L 1287.433594 1429.472656 L 1237.28125 1399.722656 L 1237.28125 1452.074219 Z M 1468.167969 1534.175781 L 1468.167969 1586.527344 L 1518.882812 1616.835938 L 1520.519531 1616.835938 L 1520.519531 1565.601562 Z M 1518.882812 1463.097656 L 1520.519531 1463.097656 L 1520.519531 1411.304688 L 1468.167969 1379.875 L 1468.167969 1431.667969 Z M 1468.167969 1303.847656 L 1468.167969 1355.078125 L 1518.882812 1388.140625 L 1520.519531 1388.140625 L 1520.519531 1335.792969 Z M 1391.019531 1258.082031 L 1391.019531 1310.433594 L 1442.292969 1340.183594 L 1442.292969 1287.316406 Z M 1391.019531 1334.15625 L 1391.019531 1386.507812 L 1442.292969 1416.253906 L 1442.292969 1363.902344 Z M 1365.660156 1320.378906 L 1313.867188 1287.832031 L 1313.867188 1341.863281 L 1365.660156 1372.171875 Z M 1287.433594 1327.523438 L 1287.433594 1274.613281 L 1237.28125 1246.5 L 1237.28125 1297.777344 Z M 1287.433594 1251.496094 L 1287.433594 1198.585938 L 1237.28125 1170.472656 L 1237.28125 1221.1875 Z M 1365.660156 1244.867188 L 1313.867188 1211.800781 L 1313.867188 1265.789062 L 1365.660156 1297.214844 Z M 1596.546875 2020.230469 L 1546.4375 1991 L 1546.4375 2043.351562 L 1596.546875 2073.660156 L 1596.546875 2637.984375 L 1125.429688 2362.96875 L 1125.429688 1517.082031 C 1136.453125 1505.113281 1142.695312 1489.875 1144.15625 1471.363281 C 1147.085938 1469.511719 1149.453125 1467.316406 1151.304688 1464.730469 C 1154.964844 1458.144531 1157.71875 1450.957031 1159.570312 1443.25 C 1162.023438 1432.269531 1164.867188 1421.507812 1168.136719 1411.003906 L 1209.726562 1437.179688 L 1209.726562 1384.828125 L 1175.285156 1364.464844 C 1176.1875 1355.164062 1177.222656 1345.691406 1178.296875 1336.050781 L 1594.351562 1578.261719 L 1594.351562 1547.390625 L 1182.429688 1307.679688 C 1184.671875 1295.019531 1187.125 1282.535156 1189.878906 1270.222656 L 1209.726562 1282.320312 L 1209.726562 1231.648438 L 1201.460938 1226.699219 C 1201.632812 1225.921875 1201.804688 1225.191406 1202.019531 1224.457031 C 1203.828125 1218.214844 1205.851562 1211.972656 1208.089844 1205.730469 L 1208.089844 1205.472656 L 1209.726562 1206.289062 L 1209.726562 1199.960938 C 1214.503906 1183.085938 1216.871094 1166.082031 1216.871094 1148.988281 C 1216.527344 1142.015625 1215.96875 1135.382812 1215.238281 1129.140625 C 1212.738281 1110.242188 1208.996094 1091.902344 1203.957031 1074.035156 L 1596.546875 1299.414062 L 1596.546875 1378.757812 L 1546.4375 1349.007812 L 1546.4375 1401.359375 L 1596.546875 1431.667969 L 1596.546875 1454.828125 L 1546.4375 1426.15625 L 1546.4375 1476.871094 L 1596.546875 1507.742188 L 1596.546875 1608.570312 L 1546.4375 1579.378906 L 1546.4375 1631.730469 L 1596.546875 1662.039062 L 1596.546875 2020.230469 "/>
<path style=" stroke:none;fill-rule:evenodd;fill:rgb(42.749023%,53.729248%,80.778503%);fill-opacity:1;" d="M 1520.519531 2028.496094 L 1518.882812 2028.496094 L 1468.167969 1997.628906 L 1468.167969 1945.835938 L 1520.519531 1976.707031 Z M 1313.867188 1854.910156 L 1365.660156 1885.738281 L 1365.660156 1937.570312 L 1313.867188 1907.824219 Z M 1159.570312 1767.257812 L 1209.726562 1796.492188 L 1209.726562 1848.839844 L 1159.570312 1817.414062 Z M 1287.433594 1481.824219 L 1237.28125 1452.074219 L 1237.28125 1399.722656 L 1287.433594 1429.472656 Z M 1365.660156 1525.910156 L 1313.867188 1496.160156 L 1313.867188 1443.25 L 1365.660156 1474.675781 Z M 1442.292969 1571.113281 L 1391.019531 1540.246094 L 1391.019531 1487.894531 L 1442.292969 1517.644531 Z M 1468.167969 1534.175781 L 1520.519531 1565.601562 L 1520.519531 1616.835938 L 1518.882812 1616.835938 L 1468.167969 1586.527344 Z M 1518.882812 1463.097656 L 1468.167969 1431.667969 L 1468.167969 1379.875 L 1520.519531 1411.304688 L 1520.519531 1463.097656 Z M 1468.167969 1303.847656 L 1520.519531 1335.792969 L 1520.519531 1388.140625 L 1518.882812 1388.140625 L 1468.167969 1355.078125 Z M 1391.019531 1258.082031 L 1442.292969 1287.316406 L 1442.292969 1340.183594 L 1391.019531 1310.433594 Z M 1287.433594 1327.523438 L 1237.28125 1297.777344 L 1237.28125 1246.5 L 1287.433594 1274.613281 Z M 1189.878906 1270.222656 C 1191.128906 1264.667969 1192.417969 1259.160156 1193.753906 1253.691406 C 1196.121094 1244.476562 1198.703125 1235.480469 1201.460938 1226.699219 L 1209.726562 1231.648438 L 1209.726562 1282.320312 Z M 1208.089844 1205.472656 C 1208.648438 1203.621094 1209.210938 1201.769531 1209.726562 1199.960938 L 1209.726562 1206.289062 Z M 1365.660156 1244.867188 L 1365.660156 1297.214844 L 1313.867188 1265.789062 L 1313.867188 1211.800781 Z M 1175.285156 1364.464844 L 1209.726562 1384.828125 L 1209.726562 1437.179688 L 1168.136719 1411.003906 C 1168.742188 1408.894531 1169.34375 1406.785156 1170.03125 1404.675781 C 1172.269531 1399.164062 1173.347656 1393.652344 1173.347656 1388.140625 C 1173.949219 1380.394531 1174.597656 1372.515625 1175.285156 1364.464844 Z M 1596.546875 2073.660156 L 1546.4375 2043.351562 L 1546.4375 1991 L 1596.546875 2020.230469 L 1597.109375 2020.230469 L 1597.109375 2073.660156 Z M 1596.546875 1662.039062 L 1546.4375 1631.730469 L 1546.4375 1579.378906 L 1596.546875 1608.570312 L 1597.109375 1608.570312 L 1597.109375 1662.039062 Z M 1596.546875 1507.742188 L 1546.4375 1476.871094 L 1546.4375 1426.15625 L 1596.546875 1454.828125 L 1597.109375 1454.828125 L 1597.109375 1507.742188 Z M 1596.546875 1431.667969 L 1546.4375 1401.359375 L 1546.4375 1349.007812 L 1596.546875 1378.757812 L 1597.109375 1378.757812 L 1597.109375 1431.667969 L 1596.546875 1431.667969 "/>
<path style=" stroke:none;fill-rule:evenodd;fill:rgb(12.159729%,19.60907%,35.688782%);fill-opacity:1;" d="M 1148.550781 2074.777344 L 1148.550781 2044.46875 L 1594.351562 2305.105469 L 1594.351562 2334.898438 Z M 1148.550781 1722.097656 L 1148.550781 1691.226562 L 1594.351562 1951.347656 L 1594.351562 1982.214844 Z M 1182.429688 1307.679688 L 1594.351562 1547.390625 L 1594.351562 1578.261719 L 1178.296875 1336.050781 C 1178.6875 1333.035156 1179.03125 1330.023438 1179.417969 1326.964844 C 1180.363281 1320.464844 1181.398438 1314.050781 1182.429688 1307.679688 "/>
<path style=" stroke:none;fill-rule:evenodd;fill:rgb(53.729248%,84.709167%,91.369629%);fill-opacity:1;" d="M 1287.433594 1893.488281 L 1237.28125 1863.695312 L 1237.28125 1811.34375 L 1287.433594 1841.136719 Z M 1391.019531 1334.15625 L 1442.292969 1363.902344 L 1442.292969 1416.253906 L 1391.019531 1386.507812 Z M 1287.433594 1251.496094 L 1237.28125 1221.1875 L 1237.28125 1170.472656 L 1287.433594 1198.585938 L 1287.433594 1251.496094 "/>
<path style=" stroke:none;fill-rule:evenodd;fill:rgb(94.509888%,24.308777%,65.489197%);fill-opacity:1;" d="M 1442.292969 1982.734375 L 1391.019531 1951.347656 L 1391.019531 1900.074219 L 1442.292969 1929.304688 Z M 1365.660156 1320.378906 L 1365.660156 1372.171875 L 1313.867188 1341.863281 L 1313.867188 1287.832031 L 1365.660156 1320.378906 "/>
<path style=" stroke:none;fill-rule:evenodd;fill:rgb(97.648621%,99.21875%,100%);fill-opacity:1;" d="M 1744.257812 1239.355469 L 1311.933594 985.863281 C 1325.578125 979.105469 1339.441406 972.476562 1353.5625 966.019531 C 1371.171875 958.226562 1388.476562 949.484375 1405.355469 939.84375 L 1776.765625 1156.695312 Z M 1706.761719 2994.496094 L 911.589844 2529.96875 L 945.773438 2444.550781 L 1742.582031 2910.71875 L 1712.273438 2996.695312 L 1711.195312 2997.253906 L 1706.761719 2994.496094 "/>
<path style=" stroke:none;fill-rule:evenodd;fill:rgb(25.878906%,42.749023%,74.508667%);fill-opacity:1;" d="M 1058.183594 2402.664062 L 1125.429688 2362.96875 L 1596.546875 2637.984375 L 1596.546875 2716.210938 L 1058.183594 2402.664062 "/>
<g clip-path="url(#clip4)" clip-rule="nonzero">
<path style=" stroke:none;fill-rule:evenodd;fill:rgb(44.309998%,45.098877%,45.489502%);fill-opacity:1;" d="M 1711.195312 2997.253906 L 1706.761719 2999.449219 L 1706.761719 2994.496094 Z M 1711.195312 2997.253906 "/>
</g>
<g clip-path="url(#clip5)" clip-rule="nonzero">
<g clip-path="url(#clip6)" clip-rule="nonzero">
<g clip-path="url(#clip7)" clip-rule="nonzero">
<path style=" stroke:none;fill-rule:nonzero;fill:rgb(48.199463%,48.599243%,48.999023%);fill-opacity:1;" d="M 1744.632812 2978.394531 L 1742.492188 2975.933594 L 1741.691406 2979.734375 L 1743.832031 2982.191406 Z M 1744.632812 2978.394531 "/>
</g>
</g>
</g>
<path style=" stroke:none;fill-rule:evenodd;fill:rgb(22.749329%,23.529053%,27.839661%);fill-opacity:1;" d="M 1370.09375 22.621094 C 1374.484375 36.914062 1374.3125 51.980469 1369.535156 67.78125 C 1364.757812 81.386719 1357.609375 94.429688 1348.050781 106.914062 C 1337.761719 120.519531 1326.570312 132.273438 1314.429688 142.175781 C 1310.382812 145.878906 1306.164062 149.148438 1301.769531 152.121094 C 1296.261719 155.390625 1290.921875 158.707031 1285.757812 162.023438 C 1284.679688 162.753906 1283.558594 163.484375 1282.484375 164.21875 C 1254.929688 178.210938 1229.1875 176.53125 1205.335938 159.265625 C 1186.5625 139.074219 1182.34375 117.203125 1192.632812 93.699219 C 1206.972656 61.710938 1229.1875 36.914062 1259.320312 19.304688 C 1292.730469 0.191406 1326.742188 -0.542969 1361.269531 17.109375 C 1364.195312 18.574219 1366.78125 20.035156 1368.976562 21.5 Z M 1402.039062 56.761719 C 1408.667969 70.75 1413.234375 86.164062 1415.816406 103.039062 C 1418.011719 118.109375 1416.203125 133.347656 1410.304688 148.804688 L 1405.914062 159.265625 L 1393.773438 181.308594 C 1397.089844 172.484375 1398.722656 166.070312 1398.722656 162.023438 C 1398.722656 158.363281 1398.207031 155.21875 1397.089844 152.636719 C 1395.625 149.710938 1393.214844 148.417969 1389.941406 148.804688 C 1386.238281 148.804688 1383.871094 149.363281 1382.753906 150.441406 C 1377.628906 156.339844 1374.660156 162.925781 1373.925781 170.289062 C 1372.851562 185.355469 1366.609375 197.667969 1355.199219 207.226562 L 1346.933594 191.769531 C 1358.6875 178.554688 1368.242188 164.21875 1375.605469 148.804688 C 1382.578125 133.738281 1388.261719 118.667969 1392.695312 103.601562 C 1397.089844 88.1875 1400.1875 72.558594 1402.039062 56.761719 "/>
<path style=" stroke:none;fill-rule:evenodd;fill:rgb(83.529663%,92.549133%,96.469116%);fill-opacity:1;" d="M 1457.707031 412.757812 L 1457.707031 411.636719 C 1458.050781 410.949219 1458.222656 410.390625 1458.265625 410 C 1458.265625 410.519531 1458.136719 411.164062 1457.964844 411.9375 C 1457.921875 412.152344 1457.835938 412.414062 1457.707031 412.757812 Z M 1187.683594 314.683594 C 1167.835938 346.285156 1145.234375 386.496094 1119.917969 435.359375 C 1087.542969 496.148438 1061.585938 549.144531 1041.910156 594.351562 L 1015.734375 580.273438 C 1013.109375 578.980469 1010.351562 578.679688 1007.46875 579.453125 C 1020.253906 551.511719 1030.371094 522.582031 1037.777344 492.660156 C 1048.066406 448.230469 1063.304688 406.515625 1083.539062 367.550781 C 1089.050781 356.917969 1094.347656 346.070312 1099.511719 335.046875 C 1123.019531 281.0625 1149.839844 228.320312 1179.976562 176.917969 L 1176.101562 185.183594 C 1170.246094 200.597656 1169.300781 217.128906 1173.347656 234.78125 C 1179.246094 261.214844 1184.023438 287.863281 1187.683594 314.683594 "/>
<path style=" stroke:none;fill-rule:evenodd;fill:rgb(94.509888%,24.308777%,65.879822%);fill-opacity:1;" d="M 1379.4375 733.492188 L 1359.074219 748.347656 L 1353.003906 743.957031 C 1348.613281 742.835938 1344.351562 741.542969 1340.347656 740.082031 C 1334.058594 738.917969 1325.792969 738.617188 1315.546875 739.261719 L 1211.105469 683.898438 C 1208.476562 680.753906 1205.980469 678 1203.65625 675.632812 C 1191.171875 662.757812 1180.882812 653.203125 1172.789062 646.960938 L 1173.347656 646.960938 C 1180.320312 632.625 1186.390625 615.746094 1191.558594 596.246094 C 1194.355469 583.585938 1197.285156 571.832031 1200.339844 560.984375 C 1202.191406 554.828125 1204 548.929688 1205.851562 543.375 C 1211.019531 527.921875 1213.386719 518.75 1213.042969 515.824219 C 1209.726562 480.519531 1204.558594 445.648438 1197.585938 411.121094 C 1197.242188 404.144531 1196.679688 396.957031 1195.949219 389.59375 C 1194.097656 364.625 1191.34375 339.65625 1187.683594 314.683594 C 1184.023438 287.863281 1179.246094 261.214844 1173.347656 234.78125 C 1169.300781 217.128906 1170.246094 200.597656 1176.101562 185.183594 L 1179.976562 176.917969 L 1205.335938 159.265625 C 1204.949219 165.898438 1206.582031 173.214844 1210.285156 181.308594 L 1231.769531 220.445312 L 1230.648438 255.703125 L 1247.179688 254.066406 C 1247.179688 266.898438 1252.519531 276.453125 1263.195312 282.695312 C 1269.785156 286.398438 1276.199219 288.207031 1282.484375 288.207031 C 1293.851562 302.199219 1310.039062 309.171875 1330.960938 309.171875 C 1373.582031 309.171875 1404.96875 295.183594 1425.203125 267.285156 C 1438.03125 250.019531 1444.488281 234.21875 1444.488281 219.882812 C 1444.488281 199.691406 1442.464844 182.773438 1438.417969 169.167969 C 1437.386719 168.136719 1436.265625 167.144531 1435.101562 166.15625 C 1454.347656 180.320312 1472.6875 195.300781 1490.210938 211.058594 C 1514.105469 230.90625 1535.027344 254.066406 1553.023438 280.5 C 1557.457031 287.476562 1561.847656 294.664062 1566.238281 301.984375 C 1558.1875 302.714844 1550.09375 304.007812 1542 305.859375 C 1504.160156 314.296875 1473.851562 334.144531 1451.074219 365.355469 C 1437.125 384.859375 1427.570312 407.289062 1422.445312 432.605469 C 1418.011719 454.472656 1416.890625 478.539062 1419.132812 504.800781 C 1420.59375 529.039062 1411.425781 586.730469 1391.578125 677.828125 C 1387.1875 698.40625 1383.140625 716.960938 1379.4375 733.492188 Z M 1873.199219 779.214844 L 1771.253906 839.273438 L 1668.746094 779.214844 L 1771.253906 718.597656 L 1873.199219 779.214844 "/>
<path style=" stroke:none;fill-rule:evenodd;fill:rgb(9.799194%,9.799194%,10.5896%);fill-opacity:1;" d="M 1370.09375 22.621094 L 1402.039062 56.761719 C 1400.1875 72.558594 1397.089844 88.1875 1392.695312 103.601562 C 1388.261719 118.667969 1382.578125 133.738281 1375.605469 148.804688 C 1368.242188 164.21875 1358.6875 178.554688 1346.933594 191.769531 L 1336.472656 182.945312 C 1322.867188 177.089844 1308.746094 171.578125 1294.023438 166.414062 C 1291.09375 164.949219 1288.339844 163.484375 1285.757812 162.023438 C 1290.921875 158.707031 1296.261719 155.390625 1301.769531 152.121094 C 1306.164062 149.148438 1310.382812 145.878906 1314.429688 142.175781 C 1326.570312 132.273438 1337.761719 120.519531 1348.050781 106.914062 C 1357.609375 94.429688 1364.757812 81.386719 1369.535156 67.78125 C 1374.3125 51.980469 1374.484375 36.914062 1370.09375 22.621094 "/>
<path style=" stroke:none;fill-rule:evenodd;fill:rgb(97.648621%,65.098572%,41.178894%);fill-opacity:1;" d="M 1364.023438 776.203125 C 1375.777344 784.769531 1381.675781 793.851562 1381.675781 803.453125 C 1381.675781 809.695312 1377.628906 818.910156 1369.535156 831.007812 C 1366.132812 836.34375 1359.71875 841.296875 1350.246094 845.902344 C 1338.105469 851.800781 1321.015625 857.140625 1299.015625 861.875 C 1259.667969 870.3125 1229.574219 871.046875 1208.605469 864.070312 C 1205.207031 862.863281 1202.0625 861.574219 1199.265625 860.238281 C 1184.929688 853.007812 1177.78125 843.277344 1177.78125 831.007812 C 1177.78125 822.179688 1182.90625 813.914062 1193.195312 806.207031 C 1201.589844 800.09375 1212.222656 795.402344 1225.140625 792.171875 C 1233.101562 790.238281 1241.886719 788.859375 1251.617188 788.039062 C 1238.742188 775.167969 1236.160156 761.777344 1243.910156 747.789062 C 1247.398438 746.28125 1251.359375 745.203125 1255.75 744.515625 C 1262.035156 743.566406 1269.179688 743.566406 1277.230469 744.515625 C 1290.664062 746.023438 1306.550781 750.070312 1324.890625 756.613281 C 1328.808594 758.078125 1332.511719 759.539062 1335.910156 761.046875 C 1347.535156 765.867188 1356.921875 770.949219 1364.023438 776.203125 Z M 1210.285156 181.308594 C 1212.824219 182.429688 1215.238281 183.503906 1217.433594 184.625 C 1251.617188 197.839844 1286.875 199.863281 1323.253906 190.695312 C 1329.839844 188.84375 1334.058594 186.820312 1335.910156 184.625 C 1335.910156 183.890625 1336.082031 183.332031 1336.472656 182.945312 L 1346.933594 191.769531 L 1355.199219 207.226562 C 1366.609375 197.667969 1372.851562 185.355469 1373.925781 170.289062 C 1374.660156 162.925781 1377.628906 156.339844 1382.753906 150.441406 C 1383.871094 149.363281 1386.238281 148.804688 1389.941406 148.804688 C 1393.214844 148.417969 1395.625 149.710938 1397.089844 152.636719 C 1398.207031 155.21875 1398.722656 158.363281 1398.722656 162.023438 C 1398.722656 166.070312 1397.089844 172.484375 1393.773438 181.308594 C 1389.726562 191.210938 1385.164062 195.644531 1379.996094 194.527344 L 1368.976562 211.058594 C 1368.632812 212.910156 1368.070312 215.105469 1367.339844 217.6875 C 1367.339844 218.03125 1367.125 218.421875 1366.78125 218.765625 L 1366.21875 220.445312 C 1365.875 222.292969 1364.929688 224.273438 1363.464844 226.515625 C 1359.804688 234.566406 1354.855469 241.925781 1348.613281 248.554688 C 1345.640625 250.753906 1342.542969 253.121094 1339.226562 255.703125 L 1302.289062 278.863281 C 1295.699219 284.375 1289.070312 287.476562 1282.484375 288.207031 C 1276.199219 288.207031 1269.785156 286.398438 1263.195312 282.695312 C 1252.519531 276.453125 1247.179688 266.898438 1247.179688 254.066406 L 1230.648438 255.703125 L 1231.769531 220.445312 L 1210.285156 181.308594 "/>
<path style=" stroke:none;fill-rule:evenodd;fill:rgb(96.859741%,55.688477%,35.688782%);fill-opacity:1;" d="M 1210.285156 181.308594 C 1206.582031 173.214844 1204.949219 165.898438 1205.335938 159.265625 C 1229.1875 176.53125 1254.929688 178.210938 1282.484375 164.21875 C 1283.558594 163.484375 1284.679688 162.753906 1285.757812 162.023438 C 1288.339844 163.484375 1291.09375 164.949219 1294.023438 166.414062 C 1308.746094 171.578125 1322.867188 177.089844 1336.472656 182.945312 C 1336.082031 183.332031 1335.910156 183.890625 1335.910156 184.625 C 1334.058594 186.820312 1329.839844 188.84375 1323.253906 190.695312 C 1286.875 199.863281 1251.617188 197.839844 1217.433594 184.625 C 1215.238281 183.503906 1212.824219 182.429688 1210.285156 181.308594 "/>
<path style=" stroke:none;fill-rule:evenodd;fill:rgb(92.939758%,47.059631%,26.669312%);fill-opacity:1;" d="M 1405.914062 159.265625 C 1407.378906 160 1409.015625 160.902344 1410.863281 162.023438 C 1424.8125 172.3125 1426.492188 192.332031 1415.816406 222.078125 C 1405.527344 246.316406 1388.996094 264.527344 1366.21875 276.625 C 1358.859375 280.328125 1351.710938 283.429688 1344.738281 286.011719 C 1329.324219 290.789062 1315.160156 288.421875 1302.289062 278.863281 L 1339.226562 255.703125 C 1342.542969 253.121094 1345.640625 250.753906 1348.613281 248.554688 C 1354.855469 241.925781 1359.804688 234.566406 1363.464844 226.515625 C 1364.929688 224.273438 1365.875 222.292969 1366.21875 220.445312 L 1366.78125 218.765625 C 1367.125 218.421875 1367.339844 218.03125 1367.339844 217.6875 C 1368.070312 215.105469 1368.632812 212.910156 1368.976562 211.058594 L 1379.996094 194.527344 C 1385.164062 195.644531 1389.726562 191.210938 1393.773438 181.308594 L 1405.914062 159.265625 "/>
<path style=" stroke:none;fill-rule:evenodd;fill:rgb(100%,100%,100%);fill-opacity:1;" d="M 923.171875 1578.261719 C 922.054688 1559.53125 927.949219 1542.828125 940.824219 1528.105469 C 942.460938 1526.125 944.09375 1524.101562 945.773438 1522.035156 C 956.753906 1509.160156 968.117188 1496.460938 979.914062 1484.019531 L 1008.585938 1450.957031 C 1021.074219 1457.585938 1034.289062 1462.921875 1048.28125 1466.925781 C 1051.511719 1467.832031 1054.824219 1468.691406 1058.183594 1469.425781 C 1061.628906 1470.15625 1065.113281 1470.800781 1068.644531 1471.363281 C 1087.585938 1472.996094 1106.488281 1474.203125 1125.429688 1474.933594 C 1127.410156 1475.0625 1129.433594 1475.152344 1131.457031 1475.195312 C 1132.578125 1474.847656 1133.308594 1474.675781 1133.695312 1474.675781 C 1130.855469 1477.261719 1128.101562 1479.886719 1125.429688 1482.640625 C 1116.648438 1491.425781 1108.769531 1500.894531 1101.707031 1511.011719 C 1091.417969 1526.46875 1080.226562 1540.976562 1068.085938 1554.582031 C 1064.984375 1557.980469 1061.671875 1561.210938 1058.183594 1564.226562 C 1053.40625 1568.488281 1048.28125 1572.449219 1042.769531 1576.0625 C 1042.296875 1576.324219 1041.824219 1576.625 1041.394531 1576.882812 C 1028.21875 1584.460938 1014.527344 1588.980469 1000.320312 1590.402344 L 995.929688 1590.917969 C 991.882812 1591.304688 987.664062 1591.648438 983.230469 1592.035156 L 963.382812 1591.476562 C 960.84375 1591.132812 958.433594 1590.746094 956.234375 1590.402344 C 952.664062 1589.710938 949.175781 1588.894531 945.773438 1587.902344 C 937.894531 1585.578125 930.363281 1582.351562 923.171875 1578.261719 Z M 991.496094 1406.871094 L 889.546875 1428.914062 C 878.183594 1432.613281 867.160156 1437.394531 856.484375 1443.25 C 836.636719 1454.269531 815.714844 1461.632812 793.671875 1465.292969 C 788.503906 1466.023438 783.382812 1466.925781 778.257812 1468.046875 C 763.191406 1471.707031 750.320312 1468.949219 739.683594 1459.78125 C 736.371094 1454.269531 735.078125 1448.933594 735.808594 1443.808594 C 736.15625 1438.296875 738.738281 1432.960938 743.515625 1427.835938 C 758.972656 1411.304688 777.140625 1398.042969 798.0625 1388.140625 C 808.738281 1384.484375 818.640625 1379.703125 827.855469 1373.804688 C 830.050781 1372.730469 832.074219 1371.4375 833.882812 1369.972656 L 853.730469 1356.199219 C 866.214844 1368.683594 881.671875 1376.390625 900.011719 1379.316406 C 914.003906 1381.511719 927.949219 1384.65625 941.898438 1388.703125 C 943.191406 1389.046875 944.484375 1389.390625 945.773438 1389.777344 C 957.699219 1393.308594 969.625 1397.699219 981.59375 1403.039062 C 984.910156 1404.503906 988.179688 1405.792969 991.496094 1406.871094 Z M 1435.101562 166.15625 C 1436.265625 167.144531 1437.386719 168.136719 1438.417969 169.167969 C 1442.464844 182.773438 1444.488281 199.691406 1444.488281 219.882812 C 1444.488281 234.21875 1438.03125 250.019531 1425.203125 267.285156 C 1404.96875 295.183594 1373.582031 309.171875 1330.960938 309.171875 C 1310.039062 309.171875 1293.851562 302.199219 1282.484375 288.207031 C 1289.070312 287.476562 1295.699219 284.375 1302.289062 278.863281 C 1315.160156 288.421875 1329.324219 290.789062 1344.738281 286.011719 C 1351.710938 283.429688 1358.859375 280.328125 1366.21875 276.625 C 1388.996094 264.527344 1405.527344 246.316406 1415.816406 222.078125 C 1426.492188 192.332031 1424.8125 172.3125 1410.863281 162.023438 C 1409.015625 160.902344 1407.378906 160 1405.914062 159.265625 L 1410.304688 148.804688 C 1411.769531 149.882812 1413.234375 150.828125 1414.738281 151.558594 L 1432.347656 164.21875 C 1433.296875 164.90625 1434.199219 165.550781 1435.101562 166.15625 "/>
<path style=" stroke:none;fill-rule:evenodd;fill:rgb(79.60968%,64.709473%,49.798584%);fill-opacity:1;" d="M 1209.726562 1199.960938 C 1209.210938 1201.769531 1208.648438 1203.621094 1208.089844 1205.472656 L 1208.089844 1205.730469 C 1205.851562 1211.972656 1203.828125 1218.214844 1202.019531 1224.457031 C 1202.578125 1217.183594 1203.3125 1209.992188 1204.214844 1202.976562 C 1205.679688 1193.03125 1207.53125 1183.386719 1209.726562 1174.042969 C 1211.75 1165.433594 1214.160156 1157.039062 1216.871094 1148.988281 C 1216.871094 1166.082031 1214.503906 1183.085938 1209.726562 1199.960938 Z M 1048.28125 1466.925781 C 1034.289062 1462.921875 1021.074219 1457.585938 1008.585938 1450.957031 L 1008.585938 1432.789062 L 1017.414062 1400.28125 L 1038.335938 1323.652344 C 1038.335938 1321.84375 1038.722656 1320.378906 1039.457031 1319.257812 L 1039.457031 1317.0625 C 1040.1875 1313.75 1040.917969 1310.433594 1041.652344 1307.117188 C 1048.625 1275.175781 1052.5 1242.28125 1053.230469 1208.488281 C 1053.964844 1198.929688 1054.523438 1189.414062 1054.867188 1179.855469 C 1055.167969 1170.816406 1056.289062 1162.207031 1058.183594 1153.941406 C 1058.527344 1152.476562 1058.871094 1151.011719 1059.300781 1149.546875 C 1062.574219 1135.210938 1064.039062 1120.703125 1063.695312 1105.980469 C 1062.960938 1091.300781 1063.132812 1076.230469 1064.253906 1060.816406 C 1065.113281 1039.464844 1068.902344 1019.015625 1075.535156 999.382812 C 1079.925781 986.597656 1085.519531 974.199219 1092.367188 962.1875 L 1092.367188 961.625 L 1092.882812 962.1875 L 1125.945312 920.296875 L 1155.179688 882.539062 L 1180.234375 869.882812 C 1186.21875 873.671875 1193.839844 877.289062 1203.097656 880.601562 C 1239.863281 893.820312 1268.492188 912.03125 1289.070312 935.148438 C 1277.964844 941.304688 1267.503906 947.546875 1257.6875 953.921875 C 1213.085938 982.808594 1180.839844 1014.582031 1160.949219 1049.238281 C 1155.265625 1059.097656 1150.574219 1069.214844 1146.914062 1079.546875 C 1139.550781 1099.394531 1134.945312 1123.457031 1133.136719 1151.742188 C 1132.015625 1167.886719 1130.941406 1192.167969 1129.820312 1224.457031 C 1129.003906 1233.628906 1127.539062 1243.359375 1125.429688 1253.691406 C 1118.113281 1289.898438 1103.042969 1333.769531 1080.226562 1385.386719 C 1071.53125 1405.019531 1064.167969 1422.757812 1058.183594 1438.554688 C 1054.308594 1448.84375 1050.992188 1458.273438 1048.28125 1466.925781 Z M 1359.074219 748.347656 C 1354.425781 750.457031 1349.902344 752.738281 1345.554688 755.234375 L 1315.546875 739.261719 C 1325.792969 738.617188 1334.058594 738.917969 1340.347656 740.082031 C 1344.351562 741.542969 1348.613281 742.835938 1353.003906 743.957031 Z M 1211.105469 683.898438 L 1146.613281 649.714844 C 1148.160156 649.457031 1149.539062 649.285156 1150.746094 649.15625 C 1162.929688 647.820312 1170.289062 647.089844 1172.789062 646.960938 C 1180.882812 653.203125 1191.171875 662.757812 1203.65625 675.632812 C 1205.980469 678 1208.476562 680.753906 1211.105469 683.898438 Z M 988.742188 952.800781 C 991.667969 957.191406 994.8125 960.894531 998.125 963.820312 C 1001.054688 969.332031 1003.25 975.574219 1004.710938 982.550781 C 1010.957031 1008.640625 1015.5625 1035.289062 1018.488281 1062.453125 C 1022.191406 1095.519531 1023.269531 1128.238281 1021.804688 1160.570312 C 1021.804688 1156.523438 1021.804688 1152.648438 1021.804688 1148.988281 C 1011.902344 1183.128906 1006.390625 1202.976562 1005.273438 1208.488281 C 990.589844 1277.714844 970.746094 1335.488281 945.773438 1381.8125 C 944.484375 1384.09375 943.191406 1386.421875 941.898438 1388.703125 C 927.949219 1384.65625 914.003906 1381.511719 900.011719 1379.316406 C 881.671875 1376.390625 866.214844 1368.683594 853.730469 1356.199219 C 849.683594 1352.496094 848.605469 1347.933594 850.414062 1342.421875 C 851.535156 1339.449219 853.167969 1336.910156 855.410156 1334.671875 C 857.605469 1332.132812 860.144531 1329.9375 863.113281 1328.085938 C 864.191406 1326.621094 865.484375 1324.597656 866.945312 1322.015625 C 868.410156 1310.648438 871.554688 1299.800781 876.332031 1289.511719 C 878.527344 1285.074219 879.085938 1280.855469 877.96875 1276.808594 C 873.1875 1247.449219 869.917969 1217.699219 868.066406 1187.5625 C 865.871094 1155.964844 864.40625 1124.535156 863.675781 1093.324219 C 863.285156 1073.476562 861.652344 1053.84375 858.679688 1034.339844 C 857.214844 1024.09375 854.847656 1014.320312 851.535156 1005.152344 C 842.363281 980.914062 839.046875 955.945312 841.632812 930.199219 C 844.558594 895.671875 857.214844 865.191406 879.648438 838.714844 L 922.355469 802.894531 L 1013.28125 851.113281 C 1010.136719 855.933594 1006.5625 861.015625 1002.515625 866.265625 C 984.132812 890.546875 974.964844 906.863281 974.964844 915.34375 C 974.964844 924.128906 978.277344 934.632812 984.910156 946.730469 C 983.789062 947.117188 982.886719 947.675781 982.152344 948.410156 C 983.960938 950.21875 985.640625 951.507812 987.105469 952.242188 C 987.835938 952.628906 988.394531 952.800781 988.742188 952.800781 "/>
<path style=" stroke:none;fill-rule:evenodd;fill:rgb(84.709167%,6.269836%,38.038635%);fill-opacity:1;" d="M 1486.894531 652.46875 L 1379.4375 733.492188 C 1383.140625 716.960938 1387.1875 698.40625 1391.578125 677.828125 C 1411.425781 586.730469 1420.59375 529.039062 1419.132812 504.800781 C 1416.890625 478.539062 1418.011719 454.472656 1422.445312 432.605469 C 1427.570312 407.289062 1437.125 384.859375 1451.074219 365.355469 C 1473.851562 334.144531 1504.160156 314.296875 1542 305.859375 C 1550.09375 304.007812 1558.1875 302.714844 1566.238281 301.984375 C 1572.136719 312.273438 1577.089844 323.121094 1581.136719 334.488281 C 1535.199219 337.070312 1499.765625 353.601562 1474.796875 384.085938 L 1459.339844 406.6875 L 1459.339844 407.246094 C 1459.339844 407.976562 1459.167969 408.539062 1458.824219 408.882812 L 1458.265625 409.441406 L 1458.265625 410 C 1458.222656 410.390625 1458.050781 410.949219 1457.707031 411.636719 L 1457.707031 412.757812 C 1462.484375 489.90625 1479.015625 564.6875 1507.300781 637.058594 L 1486.894531 652.46875 "/>
<path style=" stroke:none;fill-rule:evenodd;fill:rgb(67.449951%,77.648926%,90.979004%);fill-opacity:1;" d="M 1474.796875 384.085938 C 1478.457031 380.425781 1482.117188 376.9375 1485.820312 373.621094 C 1488.144531 378.1875 1490.511719 384.128906 1492.964844 391.53125 C 1499.898438 412.5 1507.429688 444.960938 1515.566406 488.785156 C 1527.664062 553.105469 1533.734375 595.726562 1533.734375 616.652344 C 1533.734375 631.71875 1528.050781 642.007812 1516.644531 647.519531 C 1510.445312 650.101562 1500.5 651.738281 1486.894531 652.46875 L 1507.300781 637.058594 C 1479.015625 564.6875 1462.484375 489.90625 1457.707031 412.757812 C 1457.835938 412.414062 1457.921875 412.152344 1457.964844 411.9375 C 1458.136719 411.164062 1458.265625 410.519531 1458.265625 410 L 1458.265625 409.441406 L 1458.824219 408.882812 C 1459.167969 408.539062 1459.339844 407.976562 1459.339844 407.246094 L 1459.339844 406.6875 Z M 1092.882812 621.34375 L 1041.910156 594.351562 C 1061.585938 549.144531 1087.542969 496.148438 1119.917969 435.359375 C 1145.234375 386.496094 1167.835938 346.285156 1187.683594 314.683594 C 1191.34375 339.65625 1194.097656 364.625 1195.949219 389.59375 C 1196.679688 396.957031 1197.242188 404.144531 1197.585938 411.121094 C 1191.34375 420.289062 1186.046875 429.847656 1181.613281 439.75 C 1167.277344 469.886719 1152.207031 499.636719 1136.453125 529.039062 C 1121.039062 559.132812 1106.53125 589.914062 1092.882812 621.34375 "/>
<path style=" stroke:none;fill-rule:evenodd;fill:rgb(94.898987%,97.24884%,99.21875%);fill-opacity:1;" d="M 1379.4375 733.492188 L 1486.894531 652.46875 C 1500.5 651.738281 1510.445312 650.101562 1516.644531 647.519531 C 1528.050781 642.007812 1533.734375 631.71875 1533.734375 616.652344 C 1533.734375 595.726562 1527.664062 553.105469 1515.566406 488.785156 C 1507.429688 444.960938 1499.898438 412.5 1492.964844 391.53125 C 1490.511719 384.128906 1488.144531 378.1875 1485.820312 373.621094 C 1482.117188 376.9375 1478.457031 380.425781 1474.796875 384.085938 C 1499.765625 353.601562 1535.199219 337.070312 1581.136719 334.488281 C 1581.609375 336.8125 1582.082031 339.09375 1582.511719 341.375 C 1594.394531 397.558594 1604.210938 454.042969 1612.003906 510.828125 C 1620.054688 572.222656 1616.050781 630.601562 1599.863281 686.09375 C 1597.667969 694.53125 1592.714844 702.238281 1585.011719 709.210938 C 1567.703125 723.203125 1548.976562 737.714844 1528.785156 752.78125 L 1413.0625 838.195312 C 1392.871094 854.726562 1372.117188 857.828125 1350.808594 847.539062 L 1350.246094 845.902344 C 1359.71875 841.296875 1366.132812 836.34375 1369.535156 831.007812 C 1377.628906 818.910156 1381.675781 809.695312 1381.675781 803.453125 C 1381.675781 793.851562 1375.777344 784.769531 1364.023438 776.203125 L 1367.898438 774.265625 C 1371.902344 772.070312 1372.289062 769.828125 1368.976562 767.632812 L 1345.554688 755.234375 C 1349.902344 752.738281 1354.425781 750.457031 1359.074219 748.347656 L 1379.4375 733.492188 "/>
<path style=" stroke:none;fill-rule:evenodd;fill:rgb(48.239136%,35.688782%,24.708557%);fill-opacity:1;" d="M 1133.695312 1474.675781 C 1133.308594 1474.675781 1132.578125 1474.847656 1131.457031 1475.195312 C 1129.433594 1475.152344 1127.410156 1475.0625 1125.429688 1474.933594 C 1106.488281 1474.203125 1087.585938 1472.996094 1068.644531 1471.363281 C 1065.113281 1470.800781 1061.628906 1470.15625 1058.183594 1469.425781 C 1054.824219 1468.691406 1051.511719 1467.832031 1048.28125 1466.925781 C 1050.992188 1458.273438 1054.308594 1448.84375 1058.183594 1438.554688 C 1064.167969 1422.757812 1071.53125 1405.019531 1080.226562 1385.386719 C 1103.042969 1333.769531 1118.113281 1289.898438 1125.429688 1253.691406 C 1127.539062 1243.359375 1129.003906 1233.628906 1129.820312 1224.457031 C 1130.941406 1192.167969 1132.015625 1167.886719 1133.136719 1151.742188 C 1134.945312 1123.457031 1139.550781 1099.394531 1146.914062 1079.546875 C 1150.574219 1069.214844 1155.265625 1059.097656 1160.949219 1049.238281 C 1180.839844 1014.582031 1213.085938 982.808594 1257.6875 953.921875 C 1267.503906 947.546875 1277.964844 941.304688 1289.070312 935.148438 C 1268.492188 912.03125 1239.863281 893.820312 1203.097656 880.601562 C 1193.839844 877.289062 1186.21875 873.671875 1180.234375 869.882812 L 1199.265625 860.238281 C 1202.0625 861.574219 1205.207031 862.863281 1208.605469 864.070312 C 1229.574219 871.046875 1259.667969 870.3125 1299.015625 861.875 C 1321.015625 857.140625 1338.105469 851.800781 1350.246094 845.902344 L 1350.808594 847.539062 C 1372.117188 857.828125 1392.871094 854.726562 1413.0625 838.195312 L 1528.785156 752.78125 C 1528.785156 787.308594 1521.808594 820.371094 1507.859375 851.972656 C 1501.230469 867.773438 1491.328125 880.988281 1478.113281 891.625 C 1465.238281 901.570312 1451.808594 911.125 1437.859375 920.296875 C 1427.183594 927.226562 1416.375 933.730469 1405.355469 939.84375 C 1388.476562 949.484375 1371.171875 958.226562 1353.5625 966.019531 C 1339.441406 972.476562 1325.578125 979.105469 1311.933594 985.863281 C 1309.261719 987.113281 1306.59375 988.40625 1303.96875 989.738281 C 1289.628906 997.058594 1276.585938 1006.269531 1264.832031 1017.292969 C 1244.640625 1035.632812 1221.652344 1046.136719 1195.949219 1048.675781 C 1198.921875 1056.988281 1201.589844 1065.46875 1203.957031 1074.035156 C 1208.996094 1091.902344 1212.738281 1110.242188 1215.238281 1129.140625 C 1215.96875 1135.382812 1216.527344 1142.015625 1216.871094 1148.988281 C 1214.160156 1157.039062 1211.75 1165.433594 1209.726562 1174.042969 C 1207.53125 1183.386719 1205.679688 1193.03125 1204.214844 1202.976562 C 1203.3125 1209.992188 1202.578125 1217.183594 1202.019531 1224.457031 C 1201.804688 1225.191406 1201.632812 1225.921875 1201.460938 1226.699219 C 1198.703125 1235.480469 1196.121094 1244.476562 1193.753906 1253.691406 C 1192.417969 1259.160156 1191.128906 1264.667969 1189.878906 1270.222656 C 1187.125 1282.535156 1184.671875 1295.019531 1182.429688 1307.679688 C 1181.398438 1314.050781 1180.363281 1320.464844 1179.417969 1326.964844 C 1179.03125 1330.023438 1178.6875 1333.035156 1178.296875 1336.050781 C 1177.222656 1345.691406 1176.1875 1355.164062 1175.285156 1364.464844 C 1174.597656 1372.515625 1173.949219 1380.394531 1173.347656 1388.140625 C 1173.347656 1393.652344 1172.269531 1399.164062 1170.03125 1404.675781 C 1169.34375 1406.785156 1168.742188 1408.894531 1168.136719 1411.003906 C 1164.867188 1421.507812 1162.023438 1432.269531 1159.570312 1443.25 C 1157.71875 1450.957031 1154.964844 1458.144531 1151.304688 1464.730469 C 1149.453125 1467.316406 1147.085938 1469.511719 1144.15625 1471.363281 Z M 1008.585938 1432.789062 C 1004.929688 1427.621094 1003.808594 1421.59375 1005.273438 1414.578125 C 1007.125 1408.332031 1011.171875 1403.554688 1017.414062 1400.28125 L 991.496094 1406.871094 C 988.179688 1405.792969 984.910156 1404.503906 981.59375 1403.039062 C 969.625 1397.699219 957.699219 1393.308594 945.773438 1389.777344 C 944.484375 1389.390625 943.191406 1389.046875 941.898438 1388.703125 C 943.191406 1386.421875 944.484375 1384.09375 945.773438 1381.8125 C 970.746094 1335.488281 990.589844 1277.714844 1005.273438 1208.488281 C 1006.390625 1202.976562 1011.902344 1183.128906 1021.804688 1148.988281 C 1021.804688 1152.648438 1021.804688 1156.523438 1021.804688 1160.570312 L 1020.726562 1172.109375 C 1018.875 1207.753906 1023.65625 1241.207031 1035.019531 1272.417969 C 1040.1875 1287.097656 1041.652344 1301.996094 1039.457031 1317.0625 L 1039.457031 1319.257812 C 1038.722656 1320.378906 1038.335938 1321.84375 1038.335938 1323.652344 L 1017.414062 1400.28125 Z M 1125.945312 920.296875 L 1054.867188 939.582031 L 1054.308594 939.582031 C 1041.480469 942.898438 1028.433594 943.242188 1015.21875 940.660156 C 1001.957031 939.195312 991.882812 941.21875 984.910156 946.730469 C 978.277344 934.632812 974.964844 924.128906 974.964844 915.34375 C 974.964844 906.863281 984.132812 890.546875 1002.515625 866.265625 C 1006.5625 861.015625 1010.136719 855.933594 1013.28125 851.113281 L 1113.289062 904.324219 C 1116.476562 906.433594 1117.078125 905.703125 1115.226562 902.085938 C 1116.691406 901.871094 1118.285156 901.355469 1119.917969 900.449219 L 1155.179688 882.539062 L 1125.945312 920.296875 "/>
<path style=" stroke:none;fill-rule:evenodd;fill:rgb(97.24884%,61.959839%,12.159729%);fill-opacity:1;" d="M 998.125 963.820312 C 994.8125 960.894531 991.667969 957.191406 988.742188 952.800781 C 992.398438 954.265625 994.8125 956.460938 995.929688 959.429688 C 996.273438 960.164062 996.835938 960.894531 997.566406 961.625 C 997.910156 962.359375 998.125 963.089844 998.125 963.820312 "/>
<path style=" stroke:none;fill-rule:evenodd;fill:rgb(21.569824%,14.898682%,21.179199%);fill-opacity:1;" d="M 1008.585938 1432.789062 C 988.265625 1442.042969 967.34375 1447.46875 945.773438 1449.019531 C 944.3125 1449.148438 942.847656 1449.234375 941.339844 1449.320312 C 935.484375 1448.933594 930.320312 1446.910156 925.925781 1443.25 C 923.34375 1440.664062 920.589844 1438.125 917.660156 1435.542969 C 891.570312 1443.25 866.429688 1453.152344 842.148438 1465.292969 C 813.132812 1480.359375 783.210938 1485.3125 752.34375 1480.1875 C 749.757812 1480.917969 747.390625 1480.1875 745.195312 1477.949219 C 738.910156 1473.558594 737.101562 1467.488281 739.683594 1459.78125 C 750.320312 1468.949219 763.191406 1471.707031 778.257812 1468.046875 C 783.382812 1466.925781 788.503906 1466.023438 793.671875 1465.292969 C 815.714844 1461.632812 836.636719 1454.269531 856.484375 1443.25 C 867.160156 1437.394531 878.183594 1432.613281 889.546875 1428.914062 L 991.496094 1406.871094 L 1017.414062 1400.28125 C 1011.171875 1403.554688 1007.125 1408.332031 1005.273438 1414.578125 C 1003.808594 1421.59375 1004.929688 1427.621094 1008.585938 1432.789062 Z M 1125.429688 1517.082031 C 1119.574219 1523.539062 1112.429688 1529.050781 1103.90625 1533.613281 C 1100.632812 1535.078125 1097.316406 1536.371094 1094.003906 1537.488281 C 1084.058594 1554.066406 1072.089844 1568.316406 1058.183594 1580.195312 C 1053.621094 1583.984375 1048.839844 1587.558594 1043.847656 1590.917969 C 1043.460938 1591.175781 1043.113281 1591.433594 1042.769531 1591.777344 C 1037.175781 1594.964844 1031.105469 1597.289062 1024.558594 1598.667969 C 1004.539062 1604.304688 984.738281 1606.15625 965.0625 1604.175781 C 958.605469 1603.488281 952.1875 1602.367188 945.773438 1600.863281 C 940.046875 1599.527344 934.367188 1597.890625 928.683594 1595.910156 C 927.949219 1595.523438 927.046875 1595.179688 925.925781 1594.792969 L 923.171875 1578.261719 C 930.363281 1582.351562 937.894531 1585.578125 945.773438 1587.902344 C 949.175781 1588.894531 952.664062 1589.710938 956.234375 1590.402344 C 958.433594 1590.746094 960.84375 1591.132812 963.382812 1591.476562 L 983.230469 1592.035156 C 987.664062 1591.648438 991.882812 1591.304688 995.929688 1590.917969 L 1000.320312 1590.402344 C 1014.527344 1588.980469 1028.21875 1584.460938 1041.394531 1576.882812 C 1041.824219 1576.625 1042.296875 1576.324219 1042.769531 1576.0625 C 1048.28125 1572.449219 1053.40625 1568.488281 1058.183594 1564.226562 C 1061.671875 1561.210938 1064.984375 1557.980469 1068.085938 1554.582031 C 1080.226562 1540.976562 1091.417969 1526.46875 1101.707031 1511.011719 C 1108.769531 1500.894531 1116.648438 1491.425781 1125.429688 1482.640625 C 1128.101562 1479.886719 1130.855469 1477.261719 1133.695312 1474.675781 L 1144.15625 1471.363281 C 1142.695312 1489.875 1136.453125 1505.113281 1125.429688 1517.082031 "/>
<path style=" stroke:none;fill-rule:evenodd;fill:rgb(82.749939%,8.239746%,30.198669%);fill-opacity:1;" d="M 1771.253906 839.273438 L 1873.199219 779.214844 L 1873.199219 894.378906 L 1771.253906 954.4375 L 1771.253906 839.273438 "/>
<path style=" stroke:none;fill-rule:evenodd;fill:rgb(12.548828%,15.289307%,33.729553%);fill-opacity:1;" d="M 926.1875 620.527344 L 976.082031 646.960938 C 978.667969 648.679688 980.949219 650.964844 982.972656 653.847656 C 983.402344 654.621094 983.875 655.441406 984.347656 656.34375 L 1114.925781 901.570312 C 1115.011719 901.699219 1115.140625 901.914062 1115.226562 902.085938 C 1117.078125 905.703125 1116.476562 906.433594 1113.289062 904.324219 L 1013.28125 851.113281 L 922.355469 802.894531 L 760.046875 716.960938 C 756.390625 715.109375 753.460938 712.183594 751.222656 708.136719 L 620.644531 462.914062 C 618.449219 458.867188 619.183594 457.746094 622.839844 459.597656 L 926.1875 620.527344 "/>
<path style=" stroke:none;fill-rule:evenodd;fill:rgb(92.939758%,8.239746%,49.409485%);fill-opacity:1;" d="M 1771.253906 839.273438 L 1771.253906 954.4375 L 1668.746094 894.378906 L 1668.746094 779.214844 L 1771.253906 839.273438 "/>
<path style=" stroke:none;fill-rule:evenodd;fill:rgb(61.178589%,75.689697%,91.369629%);fill-opacity:1;" d="M 1764.625 970.453125 L 1867.128906 1031.585938 L 1764.625 1091.125 L 1662.675781 1031.585938 Z M 1199.265625 860.238281 L 1180.234375 869.882812 L 1155.179688 882.539062 L 1119.917969 900.449219 C 1118.285156 901.355469 1116.691406 901.871094 1115.226562 902.085938 C 1115.140625 901.914062 1115.011719 901.699219 1114.925781 901.570312 L 984.347656 656.34375 C 983.875 655.441406 983.402344 654.621094 982.972656 653.847656 C 980.949219 650.964844 978.667969 648.679688 976.082031 646.960938 L 926.1875 620.527344 L 1004.195312 580.832031 C 1005.316406 580.230469 1006.390625 579.753906 1007.46875 579.453125 C 1010.351562 578.679688 1013.109375 578.980469 1015.734375 580.273438 L 1041.910156 594.351562 L 1092.882812 621.34375 L 1094.5625 622.160156 L 1146.613281 649.714844 L 1211.105469 683.898438 L 1315.546875 739.261719 L 1345.554688 755.234375 L 1368.976562 767.632812 C 1372.289062 769.828125 1371.902344 772.070312 1367.898438 774.265625 L 1364.023438 776.203125 C 1356.921875 770.949219 1347.535156 765.867188 1335.910156 761.046875 C 1332.511719 759.539062 1328.808594 758.078125 1324.890625 756.613281 C 1306.550781 750.070312 1290.664062 746.023438 1277.230469 744.515625 C 1269.179688 743.566406 1262.035156 743.566406 1255.75 744.515625 C 1251.359375 745.203125 1247.398438 746.28125 1243.910156 747.789062 C 1236.160156 761.777344 1238.742188 775.167969 1251.617188 788.039062 C 1241.886719 788.859375 1233.101562 790.238281 1225.140625 792.171875 C 1212.222656 795.402344 1201.589844 800.09375 1193.195312 806.207031 C 1182.90625 813.914062 1177.78125 822.179688 1177.78125 831.007812 C 1177.78125 843.277344 1184.929688 853.007812 1199.265625 860.238281 "/>
</g>
</svg>
