<?xml version="1.0" encoding="UTF-8"?>
<svg xmlns="http://www.w3.org/2000/svg" xmlns:xlink="http://www.w3.org/1999/xlink" width="3000pt" height="2999.999989pt" viewBox="0 0 3000 2999.999989" version="1.2">
<defs>
<clipPath id="clip1">
  <path d="M 1314 0 L 2203.070312 0 L 2203.070312 1016 L 1314 1016 Z M 1314 0 "/>
</clipPath>
<clipPath id="clip2">
  <path d="M 799 469 L 1700 469 L 1700 2999.289062 L 799 2999.289062 Z M 799 469 "/>
</clipPath>
<clipPath id="clip3">
  <path d="M 1037 250 L 1039 250 L 1039 253 L 1037 253 Z M 1037 250 "/>
</clipPath>
<clipPath id="clip4">
  <path d="M 1038.460938 252.964844 L 1037.554688 252.964844 C 1037.554688 252.335938 1037.554688 251.425781 1037.554688 250.238281 C 1038.183594 251.425781 1038.460938 252.335938 1038.460938 252.964844 "/>
</clipPath>
</defs>
<g id="surface1">
<g clip-path="url(#clip1)" clip-rule="nonzero">
<path style=" stroke:none;fill-rule:evenodd;fill:rgb(32.939148%,36.468506%,70.588684%);fill-opacity:1;" d="M 1533.976562 682.300781 L 1817.546875 845.050781 C 1814.402344 848.542969 1810.558594 853.925781 1805.875 861.191406 C 1798.1875 873.070312 1793.085938 885.859375 1790.710938 899.625 C 1790.082031 905.566406 1789.523438 912.132812 1788.894531 919.332031 C 1787.707031 927.648438 1787.078125 936.3125 1787.078125 945.257812 C 1788.335938 947.003906 1789.804688 948.472656 1791.550781 949.730469 C 1792.179688 950.917969 1793.085938 952.105469 1794.277344 953.292969 L 1789.804688 950.636719 C 1783.234375 955.390625 1776.945312 961.050781 1771.003906 967.617188 C 1755.492188 982.503906 1747.175781 990.257812 1745.988281 990.886719 L 1716.917969 1015.484375 C 1703.570312 1010.941406 1689.105469 1004.234375 1673.523438 995.359375 L 1546.484375 921.988281 C 1544.039062 914.160156 1540.753906 904.308594 1536.628906 892.496094 L 1528.59375 870.976562 L 1527.6875 870.136719 C 1524.613281 860.84375 1521.746094 852.316406 1519.230469 844.628906 L 1571.570312 874.609375 C 1584.636719 881.738281 1594.210938 883.832031 1600.152344 880.828125 L 1692.320312 828.070312 L 1693.160156 827.160156 C 1699.167969 823.597656 1696.792969 818.496094 1686.03125 811.996094 C 1684.84375 811.367188 1683.9375 811.089844 1683.378906 811.089844 L 1567.9375 744.003906 C 1566.75 743.375 1565.628906 742.746094 1564.371094 742.1875 C 1553.050781 736.808594 1544.386719 735.617188 1538.449219 738.625 L 1487.015625 768.113281 C 1482.125 761.054688 1476.046875 753.019531 1468.707031 744.003906 C 1462.347656 736.457031 1456.550781 729.75 1451.238281 723.878906 C 1466.472656 722.132812 1480.65625 718.429688 1493.726562 712.699219 C 1512.101562 702.777344 1525.519531 692.644531 1533.976562 682.300781 Z M 1663.671875 28.441406 L 1659.199219 26.625 L 1658.289062 25.714844 L 1662.761719 430.945312 L 2176.164062 718.917969 L 2175.328125 724.296875 L 1654.726562 432.691406 L 1650.253906 21.242188 Z M 1321.960938 614.308594 C 1320.074219 612.351562 1317.699219 610.535156 1314.832031 608.929688 L 1359.554688 583.421875 C 1349.84375 593.203125 1340.757812 605.714844 1332.304688 621.015625 C 1328.808594 618.5 1325.386719 616.265625 1321.960938 614.308594 Z M 1499.523438 571.332031 C 1496.242188 570.144531 1493.726562 569.238281 1491.90625 568.675781 C 1485.410156 557.914062 1475.554688 551.695312 1462.417969 549.878906 C 1460.042969 549.25 1457.945312 548.972656 1456.128906 548.972656 C 1447.882812 543.589844 1438.660156 541.84375 1428.457031 543.660156 L 1584.988281 453.308594 C 1603.433594 443.105469 1627.332031 442.824219 1656.542969 452.398438 C 1661.855469 458.339844 1668.773438 464.277344 1677.089844 470.289062 L 1689.597656 478.324219 C 1694.976562 481.886719 1700.359375 485.519531 1705.738281 489.085938 L 1931.097656 616.054688 L 1932.914062 616.054688 L 1933.824219 616.964844 L 2121.660156 723.390625 C 2129.976562 728.140625 2137.171875 731.496094 2143.113281 733.242188 L 2149.332031 735.96875 C 2150.589844 736.527344 2151.148438 737.085938 2151.148438 737.714844 L 2160.09375 739.53125 C 2182.804688 755.605469 2191.121094 769.582031 2185.109375 781.53125 C 2182.804688 785.722656 2178.609375 789.636719 2172.601562 793.199219 L 1985.253906 900.953125 L 1930.191406 907.660156 L 1844.378906 882.644531 L 1830.960938 852.667969 C 1835.574219 855.390625 1840.046875 857.90625 1844.378906 860.285156 L 1845.21875 860.285156 C 1847.035156 860.84375 1848.5 861.472656 1849.691406 862.03125 C 1874.21875 873.351562 1890.847656 876.355469 1899.792969 870.976562 L 2076.9375 769.929688 C 2079.3125 768.742188 2080.78125 767.554688 2081.410156 766.367188 C 2083.785156 761.542969 2079.941406 755.324219 2069.738281 747.566406 C 2062.613281 741 2052.199219 733.242188 2038.433594 724.296875 L 1692.320312 526.609375 C 1686.382812 523.605469 1680.371094 520.671875 1674.433594 517.664062 C 1669.609375 515.289062 1665.136719 513.191406 1661.015625 511.445312 C 1639.492188 501.871094 1624.609375 499.777344 1616.292969 505.15625 Z M 1656.542969 0.699219 C 1667.234375 -2.304688 1686.382812 3.984375 1713.773438 19.496094 L 2129.695312 252.964844 C 2176.792969 279.796875 2200.691406 306.628906 2201.253906 333.464844 L 2203 721.644531 C 2203.628906 737.714844 2195.871094 744.285156 2179.800781 741.277344 C 2187.554688 738.902344 2191.398438 732.335938 2191.398438 721.644531 L 2188.742188 334.300781 C 2188.113281 306.910156 2164.285156 280.074219 2117.1875 253.800781 L 1703.011719 19.496094 C 1682.75 7.546875 1667.234375 1.257812 1656.542969 0.699219 "/>
</g>
<path style=" stroke:none;fill-rule:evenodd;fill:rgb(59.21936%,55.688477%,81.17981%);fill-opacity:1;" d="M 2176.164062 718.917969 L 2171.691406 312.847656 L 1673.523438 33.820312 L 1663.671875 28.441406 L 1650.253906 21.242188 L 1654.726562 432.691406 L 2175.328125 724.296875 Z M 2160.09375 739.53125 L 2151.148438 737.714844 C 2151.148438 737.085938 2150.589844 736.527344 2149.332031 735.96875 L 2143.113281 733.242188 C 2137.171875 731.496094 2129.976562 728.140625 2121.660156 723.390625 L 1933.824219 616.964844 L 1932.914062 616.054688 L 1931.097656 616.054688 L 1705.738281 489.085938 C 1700.359375 485.519531 1694.976562 481.886719 1689.597656 478.324219 L 1677.089844 470.289062 C 1668.773438 464.277344 1661.855469 458.339844 1656.542969 452.398438 C 1647.597656 444.011719 1641.9375 435.695312 1639.492188 427.382812 L 1638.65625 425.566406 C 1638.027344 424.375 1637.464844 422.910156 1636.835938 421.09375 C 1635.648438 417.527344 1635.371094 413.617188 1635.929688 409.492188 L 1632.363281 20.40625 C 1632.363281 6.078125 1639.84375 -0.488281 1654.726562 0.699219 C 1655.355469 0.699219 1655.914062 0.699219 1656.542969 0.699219 C 1667.234375 1.257812 1682.75 7.546875 1703.011719 19.496094 L 2117.1875 253.800781 C 2164.285156 280.074219 2188.113281 306.910156 2188.742188 334.300781 L 2191.398438 721.644531 C 2191.398438 732.335938 2187.554688 738.902344 2179.800781 741.277344 C 2179.171875 741.90625 2178.609375 742.1875 2177.980469 742.1875 L 2176.164062 742.1875 L 2160.09375 739.53125 "/>
<path style=" stroke:none;fill-rule:evenodd;fill:rgb(18.03894%,25.099182%,52.159119%);fill-opacity:1;" d="M 1716.917969 1015.484375 L 1704.339844 1026.175781 C 1694.628906 1021.914062 1684.355469 1016.742188 1673.523438 1010.523438 L 1552.285156 940.785156 C 1551.304688 937.011719 1549.347656 930.722656 1546.484375 921.988281 L 1673.523438 995.359375 C 1689.105469 1004.234375 1703.570312 1010.941406 1716.917969 1015.484375 Z M 1487.015625 768.113281 L 1538.449219 738.625 C 1544.386719 735.617188 1553.050781 736.808594 1564.371094 742.1875 C 1565.628906 742.746094 1566.75 743.375 1567.9375 744.003906 L 1683.378906 811.089844 C 1683.9375 811.089844 1684.84375 811.367188 1686.03125 811.996094 C 1696.792969 818.496094 1699.167969 823.597656 1693.160156 827.160156 L 1692.320312 828.070312 L 1600.152344 880.828125 C 1594.210938 883.832031 1584.636719 881.738281 1571.570312 874.609375 L 1519.230469 844.628906 C 1510.214844 818.636719 1504.136719 801.445312 1500.851562 793.199219 C 1499.105469 787.050781 1494.492188 778.734375 1487.015625 768.113281 Z M 1830.960938 852.667969 L 1825.582031 840.578125 C 1824.183594 838.902344 1821.527344 840.367188 1817.546875 845.050781 L 1533.976562 682.300781 C 1536.070312 679.644531 1537.820312 676.988281 1539.355469 674.195312 C 1539.914062 671.820312 1540.824219 669.441406 1542.011719 667.066406 C 1542.640625 662.246094 1542.640625 657.773438 1542.011719 653.652344 L 1542.011719 652.742188 C 1542.011719 651.554688 1542.011719 650.644531 1542.011719 650.085938 L 1542.917969 643.796875 L 1542.917969 642.050781 L 1550.957031 636.667969 L 1548.300781 636.667969 L 1582.261719 632.199219 L 1622.511719 636.667969 C 1648.15625 639.046875 1663.113281 632.757812 1667.234375 617.871094 C 1649.976562 613.050781 1636.558594 610.117188 1626.984375 608.929688 C 1618.039062 606.550781 1608.816406 604.105469 1599.242188 601.800781 C 1573.039062 600.542969 1550.046875 600.542969 1530.410156 601.800781 L 1527.6875 599.074219 C 1531.320312 590.128906 1527.6875 583.003906 1516.996094 577.621094 C 1515.804688 577.621094 1514.269531 576.992188 1512.523438 575.804688 C 1507.421875 574.058594 1503.089844 572.519531 1499.523438 571.332031 L 1616.292969 505.15625 C 1624.609375 499.777344 1639.492188 501.871094 1661.015625 511.445312 C 1665.136719 513.191406 1669.609375 515.289062 1674.433594 517.664062 C 1680.371094 520.671875 1686.382812 523.605469 1692.320312 526.609375 L 2038.433594 724.296875 C 2052.199219 733.242188 2062.613281 741 2069.738281 747.566406 C 2079.941406 755.324219 2083.785156 761.542969 2081.410156 766.367188 C 2080.78125 767.554688 2079.3125 768.742188 2076.9375 769.929688 L 1899.792969 870.976562 C 1890.847656 876.355469 1874.21875 873.351562 1849.691406 862.03125 C 1848.5 861.472656 1847.035156 860.84375 1845.21875 860.285156 L 1844.378906 860.285156 C 1840.046875 857.90625 1835.574219 855.390625 1830.960938 852.667969 Z M 2017.890625 897.390625 L 1985.253906 900.953125 L 2172.601562 793.199219 C 2178.609375 789.636719 2182.804688 785.722656 2185.109375 781.53125 C 2189.933594 791.660156 2185.738281 800.605469 2172.601562 808.363281 L 2017.890625 897.390625 "/>
<path style=" stroke:none;fill-rule:evenodd;fill:rgb(80.778503%,88.238525%,96.078491%);fill-opacity:1;" d="M 1659.199219 26.625 L 1673.523438 33.820312 L 2171.691406 312.847656 L 2176.164062 718.917969 L 1662.761719 430.945312 L 1658.289062 25.714844 L 1659.199219 26.625 "/>
<path style=" stroke:none;fill-rule:evenodd;fill:rgb(97.648621%,65.098572%,41.178894%);fill-opacity:1;" d="M 1429.296875 350.445312 C 1447.183594 351.003906 1463.605469 350.445312 1478.492188 348.628906 C 1483.871094 348 1488.695312 347.160156 1492.816406 345.972656 C 1491.628906 348.347656 1490.160156 351.003906 1488.34375 354.007812 C 1484.78125 358.761719 1480.585938 363.863281 1475.835938 369.242188 C 1471.082031 369.800781 1466.332031 370.359375 1461.511719 370.988281 C 1441.246094 371.546875 1423.984375 372.457031 1409.660156 373.714844 C 1413.851562 370.082031 1417.417969 366.515625 1420.351562 362.953125 Z M 1357.738281 645.125 C 1356.0625 643.027344 1354.316406 640.792969 1352.429688 638.417969 C 1351.242188 638.417969 1350.613281 638.136719 1350.613281 637.578125 C 1348.796875 634.574219 1346.769531 631.847656 1344.324219 629.472656 C 1340.269531 626.328125 1336.285156 623.53125 1332.304688 621.015625 C 1340.757812 605.714844 1349.84375 593.203125 1359.554688 583.421875 C 1365.285156 577.480469 1371.226562 572.589844 1377.445312 568.675781 C 1394.148438 557.914062 1406.375 551.066406 1414.132812 548.132812 C 1419.09375 545.898438 1423.84375 544.429688 1428.457031 543.660156 C 1438.660156 541.84375 1447.882812 543.589844 1456.128906 548.972656 C 1457.945312 548.972656 1460.042969 549.25 1462.417969 549.878906 C 1475.554688 551.695312 1485.410156 557.914062 1491.90625 568.675781 C 1493.726562 569.238281 1496.242188 570.144531 1499.523438 571.332031 C 1503.089844 572.519531 1507.421875 574.058594 1512.523438 575.804688 C 1514.269531 576.992188 1515.804688 577.621094 1516.996094 577.621094 C 1527.6875 583.003906 1531.320312 590.128906 1527.6875 599.074219 L 1530.410156 601.800781 C 1550.046875 600.542969 1573.039062 600.542969 1599.242188 601.800781 C 1608.816406 604.105469 1618.039062 606.550781 1626.984375 608.929688 C 1636.558594 610.117188 1649.976562 613.050781 1667.234375 617.871094 C 1663.113281 632.757812 1648.15625 639.046875 1622.511719 636.667969 L 1582.261719 632.199219 L 1548.300781 636.667969 L 1550.957031 636.667969 L 1542.917969 642.050781 L 1542.917969 643.796875 C 1533.976562 645.613281 1526.847656 647.992188 1521.46875 650.996094 C 1515.738281 656.65625 1510.425781 661.757812 1505.324219 666.160156 C 1501.621094 669.863281 1497.988281 673.148438 1494.632812 676.011719 L 1494.632812 679.574219 L 1500.015625 679.574219 C 1501.203125 679.574219 1503.578125 678.945312 1507.140625 677.828125 C 1509.726562 676.011719 1514.058594 675.035156 1520.140625 674.683594 C 1522.445312 674.335938 1524.960938 674.195312 1527.6875 674.195312 C 1529.503906 674.195312 1532.789062 674.824219 1537.539062 676.011719 C 1538.167969 675.382812 1538.796875 674.824219 1539.355469 674.195312 C 1537.820312 676.988281 1536.070312 679.644531 1533.976562 682.300781 C 1525.519531 692.644531 1512.101562 702.777344 1493.726562 712.699219 C 1480.65625 718.429688 1466.472656 722.132812 1451.238281 723.878906 C 1439.917969 711.71875 1430.832031 703.195312 1423.984375 698.375 C 1419.933594 695.507812 1414.410156 691.945312 1407.425781 687.613281 C 1403.511719 679.226562 1397.082031 670.5625 1388.207031 661.6875 C 1378.84375 652.394531 1368.710938 646.871094 1357.738281 645.125 Z M 1345.230469 366.515625 C 1348.796875 369.523438 1352.429688 374.273438 1355.992188 380.84375 L 1355.085938 381.75 L 1363.121094 403.203125 C 1370.316406 400.828125 1399.527344 398.382812 1450.820312 396.074219 C 1454.382812 396.074219 1457.039062 395.726562 1458.855469 395.167969 L 1455.292969 402.292969 C 1454.101562 402.855469 1453.195312 403.484375 1452.566406 404.113281 C 1450.191406 408.234375 1447.183594 413.054688 1443.621094 418.4375 C 1429.925781 439.890625 1410.847656 466.722656 1386.390625 498.9375 L 1383.734375 502.5 C 1381.917969 505.4375 1380.449219 507.882812 1379.261719 509.628906 C 1378.074219 510.1875 1376.886719 511.097656 1375.628906 512.355469 C 1374.441406 511.097656 1373.601562 510.1875 1372.972656 509.628906 C 1361.652344 501.242188 1348.234375 490.550781 1332.722656 477.414062 C 1327.972656 472.664062 1322.589844 465.816406 1316.652344 456.871094 C 1320.214844 453.308594 1322.871094 450.023438 1324.6875 447.019531 C 1320.492188 439.890625 1318.117188 430.597656 1317.488281 419.277344 C 1316.929688 416.269531 1316.652344 413.964844 1316.652344 412.148438 C 1316.023438 407.328125 1316.300781 403.484375 1317.488281 400.546875 L 1317.488281 399.640625 C 1320.492188 390.066406 1326.785156 381.402344 1336.285156 373.714844 C 1339.292969 370.710938 1342.296875 368.332031 1345.230469 366.515625 Z M 1794.277344 953.292969 C 1806.085938 965.660156 1815.03125 979.707031 1821.109375 995.359375 C 1821.386719 996.199219 1821.667969 997.039062 1822.015625 998.015625 C 1823.207031 1001.371094 1824.253906 1004.933594 1825.09375 1008.777344 C 1825.722656 1012.410156 1826.140625 1016.324219 1826.488281 1020.375 L 1827.328125 1021.285156 C 1789.804688 1054.617188 1749.550781 1092.839844 1706.578125 1135.746094 C 1660.667969 1181.65625 1596.027344 1220.441406 1512.523438 1252.027344 C 1505.324219 1243.082031 1497.636719 1232.671875 1489.253906 1220.71875 C 1488.695312 1212.964844 1488.066406 1205.835938 1487.4375 1199.269531 C 1483.871094 1164.046875 1488.066406 1132.464844 1500.015625 1104.441406 C 1508.328125 1086.550781 1531.878906 1057.34375 1570.660156 1016.8125 C 1582.609375 1044.835938 1594.210938 1066.566406 1605.53125 1082.082031 L 1605.53125 1082.988281 C 1607.347656 1085.363281 1609.722656 1087.460938 1612.660156 1089.277344 C 1615.105469 1091.023438 1618.390625 1091.582031 1622.511719 1091.023438 C 1626.074219 1091.023438 1629.359375 1089.835938 1632.363281 1087.460938 L 1704.339844 1026.175781 L 1716.917969 1015.484375 L 1745.988281 990.886719 C 1747.175781 990.257812 1755.492188 982.503906 1771.003906 967.617188 C 1776.945312 961.050781 1783.234375 955.390625 1789.804688 950.636719 Z M 1985.253906 900.953125 L 2017.890625 897.390625 L 2036.6875 896.96875 L 2039.34375 921.988281 L 2044.722656 939.875 L 2044.722656 941.691406 C 2029.210938 945.816406 2011.039062 951.476562 1990.148438 958.671875 C 1978.199219 962.238281 1965.6875 966.710938 1952.550781 972.089844 C 1953.179688 973.835938 1953.808594 975.304688 1954.367188 976.5625 C 1957.375 979.496094 1961.496094 982.222656 1966.878906 984.597656 C 1971.699219 986.972656 1976.449219 988.441406 1981.203125 989.070312 C 1984.765625 989.628906 1988.679688 989.980469 1992.800781 989.980469 C 2000.558594 989.351562 2008.664062 988.441406 2016.980469 987.253906 C 2005.660156 1018.28125 1983.019531 1039.453125 1948.988281 1050.773438 L 1889.941406 1054.339844 C 1889.941406 1051.960938 1889.941406 1049.867188 1889.941406 1048.117188 C 1889.941406 1040.363281 1888.472656 1032.605469 1885.46875 1024.847656 C 1881.902344 1012.898438 1875.335938 1000.671875 1865.832031 988.164062 C 1865.34375 987.671875 1864.921875 986.90625 1864.503906 985.925781 L 1864.015625 985.507812 C 1861.359375 981.941406 1858.703125 978.519531 1855.980469 975.234375 C 1843.75 960.421875 1830.332031 947.492188 1815.726562 936.3125 C 1812.722656 933.867188 1809.789062 931.839844 1806.785156 930.023438 C 1800.84375 925.269531 1794.835938 921.636719 1788.894531 919.332031 C 1789.523438 912.132812 1790.082031 905.566406 1790.710938 899.625 C 1793.085938 885.859375 1798.1875 873.070312 1805.875 861.191406 C 1810.558594 853.925781 1814.402344 848.542969 1817.546875 845.050781 C 1821.527344 840.367188 1824.183594 838.902344 1825.582031 840.578125 L 1830.960938 852.667969 L 1844.378906 882.644531 L 1930.191406 907.660156 L 1985.253906 900.953125 "/>
<path style=" stroke:none;fill-rule:evenodd;fill:rgb(92.939758%,47.059631%,26.669312%);fill-opacity:1;" d="M 1377.445312 668.882812 C 1371.714844 662.175781 1365.148438 654.210938 1357.738281 645.125 C 1368.710938 646.871094 1378.84375 652.394531 1388.207031 661.6875 C 1397.082031 670.5625 1403.511719 679.226562 1407.425781 687.613281 C 1400.015625 683.347656 1390.933594 678.25 1380.101562 672.449219 C 1378.914062 671.191406 1378.074219 670.003906 1377.445312 668.882812 Z M 1539.355469 674.195312 C 1538.796875 674.824219 1538.167969 675.382812 1537.539062 676.011719 C 1532.789062 674.824219 1529.503906 674.195312 1527.6875 674.195312 C 1524.960938 674.195312 1522.445312 674.335938 1520.140625 674.683594 C 1514.058594 675.035156 1509.726562 676.011719 1507.140625 677.828125 C 1503.578125 678.945312 1501.203125 679.574219 1500.015625 679.574219 L 1494.632812 679.574219 L 1494.632812 676.011719 C 1497.988281 673.148438 1501.621094 669.863281 1505.324219 666.160156 C 1510.425781 661.757812 1515.738281 656.65625 1521.46875 650.996094 C 1526.847656 647.992188 1533.976562 645.613281 1542.917969 643.796875 L 1542.011719 650.085938 C 1542.011719 650.644531 1542.011719 651.554688 1542.011719 652.742188 L 1542.011719 653.652344 C 1542.640625 657.773438 1542.640625 662.246094 1542.011719 667.066406 C 1540.824219 669.441406 1539.914062 671.820312 1539.355469 674.195312 Z M 1496.378906 341.5 C 1494.632812 342.6875 1493.445312 344.15625 1492.816406 345.972656 C 1488.695312 347.160156 1483.871094 348 1478.492188 348.628906 C 1463.605469 350.445312 1447.183594 351.003906 1429.296875 350.445312 L 1438.242188 336.121094 L 1438.242188 334.300781 L 1439.148438 334.300781 C 1439.148438 331.296875 1439.5 327.734375 1440.058594 323.609375 C 1440.058594 322.980469 1440.058594 322.351562 1440.058594 321.792969 L 1440.964844 313.757812 C 1439.777344 308.378906 1438.871094 304.464844 1438.242188 302.15625 C 1460.953125 306.28125 1485.6875 304.464844 1512.523438 296.777344 C 1513.710938 296.148438 1514.898438 295.519531 1516.085938 294.960938 L 1516.085938 295.867188 C 1510.707031 308.9375 1505.953125 320.328125 1501.761719 329.832031 C 1500.574219 332.835938 1498.824219 336.679688 1496.378906 341.5 Z M 1279.964844 522.136719 L 1274.582031 507.882812 L 1274.582031 506.972656 C 1263.820312 502.152344 1253.410156 498.308594 1243.277344 495.304688 C 1242.089844 483.355469 1238.246094 472.105469 1231.675781 461.34375 C 1226.855469 453.585938 1219.097656 445.828125 1208.40625 438.074219 C 1203.027344 432.691406 1192.613281 423.746094 1177.101562 411.238281 C 1163.964844 400.546875 1146.355469 389.4375 1124.34375 378.1875 L 1125.179688 376.371094 C 1125.179688 375.742188 1125.179688 375.183594 1125.179688 374.554688 C 1125.8125 373.363281 1126.089844 372.175781 1126.089844 370.988281 C 1127.90625 362.601562 1129.375 354.007812 1130.5625 345.0625 C 1134.125 352.191406 1138.039062 357.570312 1142.230469 361.136719 C 1158.304688 377.277344 1170.253906 387.691406 1178.011719 392.441406 C 1184.578125 396.632812 1196.179688 400.828125 1212.878906 405.019531 C 1224.828125 408.585938 1234.332031 410.609375 1241.460938 411.238281 C 1246.839844 411.238281 1254.039062 410.050781 1262.984375 407.675781 C 1269.550781 405.859375 1282.621094 397.542969 1302.324219 382.660156 C 1314.273438 373.714844 1322.871094 367.703125 1328.25 364.769531 C 1331.816406 362.324219 1333.910156 361.414062 1334.539062 362.042969 C 1336.914062 362.601562 1339.570312 363.863281 1342.574219 365.609375 L 1345.230469 366.515625 C 1342.296875 368.332031 1339.292969 370.710938 1336.285156 373.714844 C 1326.785156 381.402344 1320.492188 390.066406 1317.488281 399.640625 L 1317.488281 400.546875 C 1316.300781 403.484375 1316.023438 407.328125 1316.652344 412.148438 C 1316.652344 413.964844 1316.929688 416.269531 1317.488281 419.277344 C 1318.117188 430.597656 1320.492188 439.890625 1324.6875 447.019531 C 1322.871094 450.023438 1320.214844 453.308594 1316.652344 456.871094 C 1316.652344 457.429688 1316.300781 457.777344 1315.742188 457.777344 C 1309.800781 464.90625 1306.167969 470.289062 1304.980469 473.851562 C 1303.792969 478.042969 1303.792969 482.167969 1304.980469 486.359375 C 1306.796875 490.550781 1310.363281 495.582031 1315.742188 501.59375 C 1316.300781 501.59375 1316.652344 501.871094 1316.652344 502.5 L 1317.488281 503.410156 C 1303.792969 500.964844 1293.660156 502.5 1287.09375 507.882812 C 1286.53125 509 1284.714844 512.355469 1281.710938 517.664062 C 1281.152344 518.851562 1280.523438 520.390625 1279.964844 522.136719 Z M 1570.660156 1016.8125 C 1531.878906 1057.34375 1508.328125 1086.550781 1500.015625 1104.441406 C 1488.066406 1132.464844 1483.871094 1164.046875 1487.4375 1199.269531 C 1488.066406 1205.835938 1488.695312 1212.964844 1489.253906 1220.71875 C 1485.6875 1214.152344 1482.125 1207.304688 1478.492188 1200.175781 L 1477.652344 1199.269531 C 1475.277344 1195.074219 1472.832031 1190.882812 1470.453125 1186.757812 L 1469.546875 1185.851562 L 1469.546875 1184.941406 C 1468.988281 1184.3125 1468.707031 1183.753906 1468.707031 1183.195312 C 1463.328125 1174.25 1457.667969 1164.675781 1451.65625 1154.546875 C 1436.773438 1129.527344 1420.699219 1106.539062 1403.371094 1085.644531 C 1433.210938 1080.890625 1460.324219 1069.570312 1484.78125 1051.683594 C 1508.050781 1034.980469 1528.945312 1011.992188 1547.390625 982.78125 C 1549.207031 979.777344 1551.304688 976.5625 1553.679688 973 C 1559.621094 989.070312 1565.28125 1003.675781 1570.660156 1016.8125 Z M 2016.980469 987.253906 C 2008.664062 988.441406 2000.558594 989.351562 1992.800781 989.980469 C 1988.679688 989.980469 1984.765625 989.628906 1981.203125 989.070312 C 1976.449219 988.441406 1971.699219 986.972656 1966.878906 984.597656 C 1961.496094 982.222656 1957.375 979.496094 1954.367188 976.5625 C 1953.808594 975.304688 1953.179688 973.835938 1952.550781 972.089844 C 1965.6875 966.710938 1978.199219 962.238281 1990.148438 958.671875 C 2011.039062 951.476562 2029.210938 945.816406 2044.722656 941.691406 L 2021.453125 965.800781 C 2021.453125 967.617188 2021.453125 969.363281 2021.453125 971.183594 C 2020.265625 976.5625 2018.796875 981.941406 2016.980469 987.253906 Z M 1794.277344 953.292969 C 1793.085938 952.105469 1792.179688 950.917969 1791.550781 949.730469 C 1789.804688 948.472656 1788.335938 947.003906 1787.078125 945.257812 C 1787.078125 936.3125 1787.707031 927.648438 1788.894531 919.332031 C 1794.835938 921.636719 1800.84375 925.269531 1806.785156 930.023438 C 1809.789062 931.839844 1812.722656 933.867188 1815.726562 936.3125 C 1830.332031 947.492188 1843.75 960.421875 1855.980469 975.234375 C 1858.703125 978.519531 1861.359375 981.941406 1864.015625 985.507812 L 1864.503906 985.925781 C 1864.921875 986.90625 1865.34375 987.671875 1865.832031 988.164062 C 1875.335938 1000.671875 1881.902344 1012.898438 1885.46875 1024.847656 C 1888.472656 1032.605469 1889.941406 1040.363281 1889.941406 1048.117188 C 1889.941406 1049.867188 1889.941406 1051.960938 1889.941406 1054.339844 L 1883.722656 1054.339844 L 1862.269531 1050.773438 C 1769.1875 1153.355469 1701.265625 1215.058594 1658.289062 1235.882812 C 1605.882812 1261.53125 1570.941406 1276.484375 1553.679688 1280.605469 C 1551.304688 1281.234375 1549.207031 1281.515625 1547.390625 1281.515625 C 1546.203125 1281.515625 1545.015625 1281.234375 1543.828125 1280.605469 L 1542.917969 1280.605469 L 1542.011719 1279.769531 C 1537.257812 1278.582031 1532.507812 1275.574219 1527.6875 1270.824219 C 1522.933594 1266.003906 1517.902344 1259.78125 1512.523438 1252.027344 C 1596.027344 1220.441406 1660.667969 1181.65625 1706.578125 1135.746094 C 1749.550781 1092.839844 1789.804688 1054.617188 1827.328125 1021.285156 L 1826.488281 1020.375 C 1826.140625 1016.324219 1825.722656 1012.410156 1825.09375 1008.777344 C 1824.253906 1004.933594 1823.207031 1001.371094 1822.015625 998.015625 C 1821.667969 997.039062 1821.386719 996.199219 1821.109375 995.359375 C 1815.03125 979.707031 1806.085938 965.660156 1794.277344 953.292969 "/>
<path style=" stroke:none;fill-rule:evenodd;fill:rgb(14.509583%,22.349548%,44.709778%);fill-opacity:1;" d="M 1571.570312 183.152344 L 1570.660156 184.96875 L 1536.628906 176.027344 C 1534.882812 174.769531 1533.695312 173.929688 1533.066406 173.300781 C 1532.507812 172.113281 1532.160156 170.925781 1532.160156 169.738281 C 1535.164062 169.109375 1540.265625 165.542969 1547.390625 159.046875 L 1547.390625 158.136719 C 1548.578125 157.507812 1549.488281 156.597656 1550.046875 155.410156 L 1574.226562 133.957031 C 1574.855469 133.957031 1575.414062 133.679688 1576.042969 133.050781 C 1577.230469 131.863281 1578.417969 130.675781 1579.605469 129.488281 L 1580.515625 129.488281 C 1582.261719 129.488281 1583.800781 129.488281 1584.988281 129.488281 L 1585.824219 129.488281 C 1588.269531 137.242188 1588.832031 142.902344 1587.640625 146.46875 C 1585.824219 153.664062 1580.164062 165.824219 1570.660156 183.152344 Z M 1531.320312 247.582031 C 1527.128906 245.765625 1522.65625 242.203125 1517.902344 236.820312 C 1516.714844 236.191406 1515.804688 235.632812 1515.175781 235.074219 C 1511.054688 229.691406 1509.238281 226.128906 1509.796875 224.3125 C 1509.796875 223.683594 1511.335938 222.773438 1514.269531 221.65625 C 1517.902344 219.839844 1524.472656 217.183594 1533.976562 213.550781 C 1551.863281 207.613281 1561.4375 204.046875 1562.625 202.859375 C 1564.371094 202.230469 1565.910156 201.320312 1567.097656 200.132812 C 1573.667969 194.824219 1579.046875 190.910156 1583.171875 188.535156 L 1587.640625 189.441406 C 1587.640625 203.140625 1578.699219 216.277344 1560.808594 228.785156 C 1551.863281 234.722656 1541.453125 240.382812 1529.503906 245.765625 C 1530.691406 246.324219 1531.597656 246.953125 1532.160156 247.582031 Z M 1513.429688 113.414062 C 1514.617188 113.414062 1515.804688 113.695312 1516.996094 114.324219 L 1519.648438 115.160156 C 1523.84375 116.347656 1525.9375 119.355469 1525.9375 124.105469 L 1526.847656 132.210938 C 1528.59375 131.582031 1530.132812 131.304688 1531.320312 131.304688 C 1527.128906 134.238281 1520.558594 135.148438 1511.613281 133.957031 C 1503.296875 133.328125 1496.101562 132.492188 1490.160156 131.304688 L 1487.4375 125.921875 L 1487.4375 125.015625 C 1488.695312 123.824219 1490.160156 123.265625 1491.90625 123.265625 C 1500.851562 119.074219 1507.769531 116.070312 1512.523438 114.324219 C 1513.082031 114.324219 1513.429688 113.972656 1513.429688 113.414062 Z M 1122.527344 189.441406 C 1127.277344 176.304688 1133.566406 164.355469 1141.324219 153.664062 C 1144.328125 163.796875 1149.640625 172.742188 1157.394531 180.5 C 1164.59375 188.183594 1172.628906 195.382812 1181.574219 201.949219 C 1203.027344 215.019531 1245.652344 231.71875 1309.453125 252.054688 C 1332.722656 259.183594 1355.714844 264.214844 1378.355469 267.21875 C 1414.691406 273.785156 1448.441406 274.976562 1479.398438 270.851562 C 1494.355469 270.222656 1507.140625 269.035156 1517.902344 267.21875 C 1544.109375 264.214844 1558.433594 262.1875 1560.808594 261 C 1555.429688 275.882812 1540.542969 287.203125 1516.085938 294.960938 C 1514.898438 295.519531 1513.710938 296.148438 1512.523438 296.777344 C 1485.6875 304.464844 1460.953125 306.28125 1438.242188 302.15625 C 1415.601562 303.90625 1393.238281 303.625 1371.15625 301.25 C 1309.800781 295.867188 1248.378906 276.792969 1186.953125 244.019531 C 1178.011719 238.636719 1169.066406 232.347656 1160.121094 225.222656 C 1154.113281 220.398438 1148.453125 215.648438 1143.070312 210.894531 C 1134.753906 203.140625 1127.90625 195.941406 1122.527344 189.441406 Z M 1355.992188 380.84375 C 1352.429688 374.273438 1348.796875 369.523438 1345.230469 366.515625 L 1342.574219 365.609375 C 1339.570312 363.863281 1336.914062 362.601562 1334.539062 362.042969 C 1333.910156 361.414062 1331.816406 362.324219 1328.25 364.769531 C 1322.871094 367.703125 1314.273438 373.714844 1302.324219 382.660156 C 1282.621094 397.542969 1269.550781 405.859375 1262.984375 407.675781 C 1254.039062 410.050781 1246.839844 411.238281 1241.460938 411.238281 C 1234.332031 410.609375 1224.828125 408.585938 1212.878906 405.019531 C 1196.179688 400.828125 1184.578125 396.632812 1178.011719 392.441406 C 1170.253906 387.691406 1158.304688 377.277344 1142.230469 361.136719 C 1138.039062 357.570312 1134.125 352.191406 1130.5625 345.0625 C 1123.992188 330.738281 1118.960938 312.570312 1115.398438 290.488281 C 1114.210938 283.359375 1113.023438 276.792969 1111.765625 270.851562 C 1111.765625 267.847656 1111.484375 264.84375 1110.925781 261.90625 L 1111.765625 225.222656 C 1113.023438 224.59375 1113.582031 223.683594 1113.582031 222.496094 L 1115.398438 214.460938 L 1115.398438 213.550781 C 1117.144531 218.933594 1123.433594 228.433594 1134.125 242.203125 C 1135.382812 244.578125 1136.570312 246.675781 1137.761719 248.492188 C 1151.457031 264.5625 1172.351562 278.886719 1200.371094 291.398438 C 1235.519531 303.90625 1272.207031 315.855469 1310.363281 327.175781 C 1328.878906 333.113281 1343.484375 339.054688 1354.175781 345.0625 C 1364.9375 350.445312 1371.785156 356.105469 1374.789062 362.042969 C 1377.167969 367.984375 1378.914062 372.804688 1380.101562 376.371094 C 1371.15625 377.558594 1363.121094 379.023438 1355.992188 380.84375 Z M 1282.621094 2955.960938 C 1256.414062 2958.898438 1236.429688 2952.679688 1222.734375 2937.164062 C 1211.414062 2925.84375 1203.65625 2908.863281 1199.464844 2886.222656 C 1198.835938 2882.589844 1197.367188 2879.304688 1194.992188 2876.371094 C 1202.746094 2787.484375 1210.785156 2698.667969 1219.097656 2609.78125 L 1218.261719 2589.234375 L 1221.824219 2493.5 C 1223.570312 2478.617188 1225.109375 2463.734375 1226.296875 2448.777344 C 1238.804688 2333.128906 1250.125 2217.757812 1260.257812 2102.667969 C 1261.445312 2089.53125 1260.886719 2076.742188 1258.511719 2064.164062 L 1235.242188 1986.386719 C 1234.613281 1982.195312 1233.425781 1978.632812 1231.675781 1975.625 L 1223.570312 1942.574219 C 1223.011719 1943.132812 1222.734375 1944.039062 1222.734375 1945.230469 C 1206.589844 1894.496094 1189.050781 1845.023438 1169.90625 1796.734375 C 1155.019531 1757.394531 1141.324219 1718.332031 1128.816406 1679.546875 C 1112.671875 1630.074219 1097.789062 1579.96875 1084.09375 1529.308594 C 1088.214844 1531.683594 1092.128906 1533.78125 1095.691406 1535.527344 C 1150.546875 1562.988281 1198.554688 1577.3125 1239.714844 1578.503906 C 1257.601562 1629.792969 1267.734375 1659.910156 1270.109375 1668.855469 C 1285.625 1723.710938 1309.800781 1794.988281 1342.574219 1882.617188 C 1367.035156 1958.367188 1379.261719 2026.917969 1379.261719 2088.339844 C 1379.261719 2163.460938 1371.15625 2252 1355.085938 2354.023438 C 1346.769531 2414.1875 1339.292969 2466.109375 1332.722656 2509.644531 C 1324.40625 2569.808594 1318.746094 2614.253906 1315.742188 2642.902344 C 1313.367188 2673.300781 1307.984375 2720.75 1299.601562 2785.105469 C 1291.285156 2848.347656 1285.902344 2894.257812 1283.527344 2922.839844 C 1282.96875 2930.597656 1282.621094 2941.636719 1282.621094 2955.960938 "/>
<path style=" stroke:none;fill-rule:evenodd;fill:rgb(21.179199%,33.729553%,68.629456%);fill-opacity:1;" d="M 1122.527344 189.441406 C 1127.90625 195.941406 1134.753906 203.140625 1143.070312 210.894531 C 1148.453125 215.648438 1154.113281 220.398438 1160.121094 225.222656 C 1169.066406 232.347656 1178.011719 238.636719 1186.953125 244.019531 C 1248.378906 276.792969 1309.800781 295.867188 1371.15625 301.25 C 1393.238281 303.625 1415.601562 303.90625 1438.242188 302.15625 C 1438.871094 304.464844 1439.777344 308.378906 1440.964844 313.757812 L 1440.058594 321.792969 C 1440.058594 322.351562 1440.058594 322.980469 1440.058594 323.609375 C 1439.5 327.734375 1439.148438 331.296875 1439.148438 334.300781 L 1438.242188 334.300781 L 1438.242188 336.121094 L 1429.296875 350.445312 L 1420.351562 362.953125 C 1417.417969 366.515625 1413.851562 370.082031 1409.660156 373.714844 C 1398.339844 374.832031 1388.488281 375.742188 1380.101562 376.371094 C 1378.914062 372.804688 1377.167969 367.984375 1374.789062 362.042969 C 1371.785156 356.105469 1364.9375 350.445312 1354.175781 345.0625 C 1343.484375 339.054688 1328.878906 333.113281 1310.363281 327.175781 C 1272.207031 315.855469 1235.519531 303.90625 1200.371094 291.398438 C 1172.351562 278.886719 1151.457031 264.5625 1137.761719 248.492188 C 1136.570312 246.675781 1135.382812 244.578125 1134.125 242.203125 C 1123.433594 228.433594 1117.144531 218.933594 1115.398438 213.550781 C 1115.398438 210.546875 1115.957031 207.613281 1117.144531 204.605469 C 1117.773438 201.601562 1118.960938 198.386719 1120.710938 194.824219 C 1121.339844 193.007812 1121.96875 191.191406 1122.527344 189.441406 Z M 1531.320312 247.582031 C 1537.886719 251.144531 1547.742188 255.617188 1560.808594 261 C 1558.433594 262.1875 1544.109375 264.214844 1517.902344 267.21875 C 1507.140625 269.035156 1494.355469 270.222656 1479.398438 270.851562 C 1448.441406 274.976562 1414.691406 273.785156 1378.355469 267.21875 C 1355.714844 264.214844 1332.722656 259.183594 1309.453125 252.054688 C 1245.652344 231.71875 1203.027344 215.019531 1181.574219 201.949219 C 1172.628906 195.382812 1164.59375 188.183594 1157.394531 180.5 C 1149.640625 172.742188 1144.328125 163.796875 1141.324219 153.664062 C 1149.640625 143.460938 1159.492188 134.238281 1170.8125 125.921875 C 1179.199219 120.542969 1190.238281 114.601562 1203.9375 108.035156 C 1222.382812 100.277344 1245.09375 91.960938 1271.929688 83.015625 L 1272.765625 83.015625 C 1273.394531 82.386719 1274.023438 82.109375 1274.582031 82.109375 C 1279.335938 80.851562 1284.4375 79.664062 1289.816406 78.542969 C 1298.132812 76.726562 1306.796875 75.820312 1315.742188 75.820312 C 1316.929688 75.820312 1318.398438 75.820312 1320.214844 75.820312 L 1321.960938 75.820312 C 1333.910156 75.820312 1346.769531 77.007812 1360.464844 79.382812 C 1384.921875 87.140625 1407.285156 93.988281 1427.550781 99.996094 C 1441.246094 103.5625 1453.753906 106.84375 1465.074219 109.851562 L 1498.195312 112.503906 C 1504.765625 113.066406 1509.796875 113.414062 1513.429688 113.414062 C 1513.429688 113.972656 1513.082031 114.324219 1512.523438 114.324219 C 1507.769531 116.070312 1500.851562 119.074219 1491.90625 123.265625 C 1490.160156 123.265625 1488.695312 123.824219 1487.4375 125.015625 L 1487.4375 125.921875 L 1490.160156 131.304688 C 1496.101562 132.492188 1503.296875 133.328125 1511.613281 133.957031 C 1520.558594 135.148438 1527.128906 134.238281 1531.320312 131.304688 C 1536.070312 131.304688 1540.542969 131.304688 1544.738281 131.304688 C 1559.621094 130.046875 1571.222656 129.488281 1579.605469 129.488281 C 1578.417969 130.675781 1577.230469 131.863281 1576.042969 133.050781 C 1575.414062 133.679688 1574.855469 133.957031 1574.226562 133.957031 L 1550.046875 155.410156 C 1549.488281 156.597656 1548.578125 157.507812 1547.390625 158.136719 L 1547.390625 159.046875 C 1540.265625 165.542969 1535.164062 169.109375 1532.160156 169.738281 C 1532.160156 170.925781 1532.507812 172.113281 1533.066406 173.300781 C 1533.695312 173.929688 1534.882812 174.769531 1536.628906 176.027344 L 1570.660156 184.96875 L 1571.570312 183.152344 L 1583.171875 188.535156 C 1579.046875 190.910156 1573.667969 194.824219 1567.097656 200.132812 C 1565.910156 201.320312 1564.371094 202.230469 1562.625 202.859375 C 1561.4375 204.046875 1551.863281 207.613281 1533.976562 213.550781 C 1524.472656 217.183594 1517.902344 219.839844 1514.269531 221.65625 C 1511.335938 222.773438 1509.796875 223.683594 1509.796875 224.3125 C 1509.238281 226.128906 1511.054688 229.691406 1515.175781 235.074219 C 1515.804688 235.632812 1516.714844 236.191406 1517.902344 236.820312 C 1522.65625 242.203125 1527.128906 245.765625 1531.320312 247.582031 Z M 1167.25 2569.53125 L 1144.886719 2660.792969 L 1133.289062 2689.441406 L 1113.582031 2724.3125 C 1110.578125 2728.433594 1106.734375 2732.628906 1101.980469 2736.820312 L 1100.164062 2737.730469 L 1069.765625 2763.65625 C 1068.578125 2764.214844 1067.042969 2765.121094 1065.296875 2766.308594 C 1058.726562 2729.34375 1053.625 2681.964844 1050.0625 2624.105469 C 1047.125 2575.820312 1045.308594 2523.058594 1044.679688 2465.828125 C 1044.679688 2462.824219 1044.679688 2460.097656 1044.679688 2457.722656 C 1044.679688 2404.683594 1044.679688 2376.382812 1044.679688 2372.75 C 1044.679688 2319.082031 1059.636719 2180.441406 1089.402344 1956.828125 C 1108.550781 1825.035156 1121.617188 1732.65625 1128.816406 1679.546875 C 1141.324219 1718.332031 1155.019531 1757.394531 1169.90625 1796.734375 C 1189.050781 1845.023438 1206.589844 1894.496094 1222.734375 1945.230469 C 1195.269531 2042.429688 1175.914062 2141.101562 1164.59375 2241.308594 C 1156.835938 2305.664062 1151.175781 2370.375 1147.542969 2435.363281 C 1147.542969 2440.742188 1147.542969 2446.125 1147.542969 2451.503906 C 1146.355469 2471.769531 1147.542969 2491.753906 1151.175781 2511.390625 L 1151.175781 2513.207031 L 1152.921875 2548.984375 L 1160.121094 2561.492188 Z M 1494.632812 2749.328125 L 1508.957031 2777.980469 C 1508.957031 2783.359375 1508.609375 2788.390625 1508.050781 2793.144531 C 1507.492188 2802.089844 1504.765625 2810.753906 1500.015625 2819.136719 C 1494.632812 2831.648438 1485.410156 2842.96875 1472.273438 2853.101562 C 1468.078125 2857.292969 1463.046875 2861.414062 1457.039062 2865.609375 C 1429.644531 2890.695312 1399.527344 2910.960938 1366.683594 2926.472656 C 1355.363281 2931.785156 1344.042969 2937.164062 1332.722656 2942.546875 C 1329.160156 2943.105469 1326.15625 2944.011719 1323.777344 2945.199219 C 1308.265625 2951.210938 1294.570312 2954.773438 1282.621094 2955.960938 C 1282.621094 2941.636719 1282.96875 2930.597656 1283.527344 2922.839844 C 1285.902344 2894.257812 1291.285156 2848.347656 1299.601562 2785.105469 C 1307.984375 2720.75 1313.367188 2673.300781 1315.742188 2642.902344 C 1318.746094 2614.253906 1324.40625 2569.808594 1332.722656 2509.644531 C 1339.292969 2466.109375 1346.769531 2414.1875 1355.085938 2354.023438 C 1371.15625 2252 1379.261719 2163.460938 1379.261719 2088.339844 C 1379.261719 2026.917969 1367.035156 1958.367188 1342.574219 1882.617188 C 1309.800781 1794.988281 1285.625 1723.710938 1270.109375 1668.855469 C 1267.734375 1659.910156 1257.601562 1629.792969 1239.714844 1578.503906 C 1249.21875 1578.503906 1258.789062 1577.875 1268.292969 1576.683594 C 1271.300781 1576.683594 1274.304688 1576.40625 1277.238281 1575.777344 C 1303.511719 1569.835938 1329.160156 1559.703125 1354.175781 1545.378906 C 1376.886719 1532.242188 1399.246094 1515.890625 1421.261719 1496.183594 C 1449.28125 1470.539062 1468.707031 1445.242188 1479.398438 1420.15625 C 1525.9375 1529.308594 1548.300781 1643.210938 1546.484375 1761.867188 C 1544.738281 1894.847656 1533.976562 2027.195312 1514.269531 2158.988281 C 1494.632812 2283.582031 1480.308594 2408.808594 1471.363281 2534.660156 C 1470.175781 2551.921875 1469.265625 2569.53125 1468.707031 2587.417969 C 1466.890625 2629.765625 1467.171875 2671.832031 1469.546875 2713.550781 C 1471.363281 2730.253906 1479.75 2742.203125 1494.632812 2749.328125 "/>
<path style=" stroke:none;fill-rule:evenodd;fill:rgb(72.549438%,7.839966%,36.859131%);fill-opacity:1;" d="M 1355.992188 380.84375 C 1363.121094 379.023438 1371.15625 377.558594 1380.101562 376.371094 C 1388.488281 375.742188 1398.339844 374.832031 1409.660156 373.714844 C 1423.984375 372.457031 1441.246094 371.546875 1461.511719 370.988281 C 1466.332031 370.359375 1471.082031 369.800781 1475.835938 369.242188 C 1487.785156 369.242188 1497.917969 369.242188 1506.234375 369.242188 C 1524.121094 370.359375 1532.507812 373.363281 1531.320312 378.1875 C 1530.132812 383.496094 1522.375 387.410156 1508.050781 389.785156 C 1496.101562 392.722656 1479.75 394.539062 1458.855469 395.167969 C 1457.039062 395.726562 1454.382812 396.074219 1450.820312 396.074219 C 1399.527344 398.382812 1370.316406 400.828125 1363.121094 403.203125 L 1355.085938 381.75 Z M 1342.574219 1053.5 C 1350.332031 1064.191406 1358.089844 1074.953125 1365.847656 1085.644531 C 1369.410156 1086.273438 1372.972656 1086.550781 1376.539062 1086.550781 C 1385.480469 1086.550781 1394.425781 1086.273438 1403.371094 1085.644531 C 1420.699219 1106.539062 1436.773438 1129.527344 1451.65625 1154.546875 C 1457.667969 1164.675781 1463.328125 1174.25 1468.707031 1183.195312 C 1468.707031 1183.753906 1468.988281 1184.3125 1469.546875 1184.941406 L 1469.546875 1185.851562 C 1473.738281 1219.253906 1478.492188 1247.832031 1483.871094 1271.664062 C 1488.695312 1296.75 1491.070312 1329.523438 1491.070312 1370.050781 C 1491.070312 1386.195312 1487.15625 1402.894531 1479.398438 1420.15625 C 1468.707031 1445.242188 1449.28125 1470.539062 1421.261719 1496.183594 C 1399.246094 1515.890625 1376.886719 1532.242188 1354.175781 1545.378906 C 1329.160156 1559.703125 1303.511719 1569.835938 1277.238281 1575.777344 C 1274.304688 1576.40625 1271.300781 1576.683594 1268.292969 1576.683594 C 1264.730469 1563.546875 1262.074219 1549.292969 1260.257812 1533.78125 C 1258.511719 1524.207031 1256.972656 1514.074219 1255.785156 1503.382812 C 1253.410156 1472.914062 1252.222656 1437.765625 1252.222656 1397.792969 C 1252.222656 1396.605469 1252.222656 1394.859375 1252.222656 1392.414062 C 1253.410156 1383.46875 1256.695312 1369.214844 1262.074219 1349.507812 C 1267.457031 1326.238281 1270.109375 1311.914062 1270.109375 1306.601562 C 1270.109375 1289.273438 1263.542969 1263.347656 1250.40625 1228.757812 C 1232.515625 1184.035156 1218.261719 1148.253906 1207.5 1121.421875 C 1169.34375 1024.21875 1148.800781 938.6875 1145.796875 864.753906 C 1145.167969 857.558594 1144.886719 850.429688 1144.886719 843.304688 C 1144.886719 825.972656 1149.988281 805.707031 1160.121094 782.4375 C 1165.433594 771.746094 1171.441406 760.355469 1178.011719 748.476562 C 1182.832031 740.441406 1187.863281 732.824219 1193.175781 725.625 C 1195.199219 722.550781 1197.296875 719.546875 1199.464844 716.679688 C 1218.890625 691.664062 1240.691406 671.820312 1264.730469 657.214844 C 1273.117188 651.832031 1282.0625 647.363281 1291.5625 643.796875 C 1292.753906 643.167969 1294.570312 642.332031 1296.945312 641.140625 C 1288.628906 638.277344 1280.59375 635.621094 1272.765625 633.105469 C 1218.609375 614.867188 1181.015625 602.640625 1160.121094 596.417969 C 1139.226562 590.410156 1120.148438 584.46875 1102.820312 578.53125 C 1071.863281 566.582031 1048.316406 555.820312 1032.171875 546.316406 C 1007.714844 531.363281 993.460938 515.011719 989.265625 497.121094 C 988.078125 492.300781 987.449219 487.828125 987.449219 483.703125 C 987.449219 481.886719 987.449219 480.699219 987.449219 480.140625 C 987.449219 478.882812 987.449219 478.042969 987.449219 477.414062 C 957.050781 491.742188 930.5 512.003906 907.855469 538.28125 C 883.398438 568.675781 866.417969 601.800781 856.914062 637.578125 C 853.910156 649.457031 851.183594 661.6875 848.808594 674.195312 C 846.433594 688.519531 844.964844 703.125 844.335938 718.078125 C 843.148438 731.148438 843.148438 744.285156 844.335938 757.421875 C 844.964844 770.488281 846.152344 782.996094 847.96875 794.945312 C 850.90625 814.652344 856.007812 834.007812 863.132812 853.085938 C 876.832031 890.679688 891.785156 927.019531 907.855469 962.238281 C 923.371094 999.203125 939.792969 1034.980469 957.050781 1069.570312 C 962.992188 1080.890625 967.183594 1092.492188 969.5625 1104.441406 C 974.382812 1129.527344 971.378906 1155.453125 960.617188 1182.285156 C 948.109375 1217.4375 936.507812 1253.214844 925.746094 1289.550781 C 924 1298.496094 922.183594 1307.441406 920.367188 1316.386719 C 916.800781 1339.097656 916.800781 1362.015625 920.367188 1385.285156 C 917.988281 1381.722656 916.523438 1378.160156 915.894531 1374.523438 C 914.144531 1369.773438 912.328125 1364.742188 910.582031 1359.359375 C 904.574219 1331.898438 905.203125 1304.226562 912.328125 1276.136719 C 924.835938 1225.472656 942.726562 1177.464844 965.996094 1132.183594 C 957.679688 1113.664062 949.015625 1095.777344 940.070312 1078.515625 C 935.320312 1068.382812 930.21875 1057.972656 924.835938 1047.210938 C 908.765625 1016.183594 893.882812 985.15625 880.113281 954.203125 C 864.601562 920.800781 851.183594 886.488281 839.863281 851.339844 C 833.296875 830.445312 828.542969 809.273438 825.609375 787.820312 C 823.792969 771.117188 823.164062 754.417969 823.792969 737.714844 C 824.351562 725.765625 824.980469 714.726562 825.609375 704.664062 C 826.796875 689.707031 828.824219 674.824219 831.828125 659.941406 C 834.203125 646.800781 837.488281 633.386719 841.679688 619.6875 C 852.441406 584.46875 869.421875 552.882812 892.695312 524.863281 C 920.085938 493.207031 954.675781 475.667969 996.394531 472.105469 C 995.207031 473.851562 994.648438 476.578125 994.648438 480.140625 C 994.019531 482.515625 995.207031 486.082031 998.210938 490.832031 C 1000.585938 496.210938 1004.429688 502.5 1009.8125 509.628906 C 1022.320312 525.773438 1055.164062 544.21875 1108.199219 565.113281 C 1117.773438 568.046875 1127.628906 571.613281 1137.761719 575.804688 C 1193.734375 595.929688 1241.601562 613.332031 1281.292969 628.144531 C 1291.285156 631.707031 1300.648438 635.132812 1309.453125 638.417969 L 1317.488281 641.140625 C 1318.398438 641.140625 1319.304688 641.28125 1320.214844 641.5625 C 1322.449219 641.769531 1324.828125 642.539062 1327.34375 643.796875 C 1329.996094 644.707031 1333.003906 645.753906 1336.285156 646.941406 C 1339.851562 648.410156 1343.765625 650.085938 1347.957031 651.832031 C 1353.265625 654.839844 1358.367188 657.214844 1363.121094 659.03125 C 1369.128906 662.59375 1373.882812 665.878906 1377.445312 668.882812 C 1378.074219 670.003906 1378.914062 671.191406 1380.101562 672.449219 C 1377.167969 670.632812 1373.882812 668.882812 1370.316406 667.066406 C 1350.683594 658.402344 1334.121094 653.929688 1320.632812 653.652344 C 1318.046875 653.652344 1315.460938 653.789062 1313.015625 654.070312 C 1311.898438 654.140625 1310.710938 654.28125 1309.453125 654.558594 C 1274.304688 661.6875 1247.46875 680.765625 1228.953125 711.789062 C 1225.039062 718.078125 1221.265625 724.578125 1217.773438 731.496094 C 1215.886719 735.410156 1214.066406 739.390625 1212.390625 743.515625 C 1203.167969 765.316406 1196.738281 789.636719 1193.175781 816.46875 C 1191.984375 821.78125 1191.078125 827.441406 1190.519531 833.449219 C 1180.945312 884.113281 1196.179688 924.640625 1236.148438 955.109375 C 1248.03125 964.613281 1261.167969 970.832031 1275.492188 973.835938 C 1281.429688 976.214844 1286.183594 979.496094 1289.816406 983.691406 C 1299.949219 996.199219 1310.640625 1009.617188 1321.960938 1023.941406 C 1323.21875 1026.316406 1324.40625 1028.691406 1325.59375 1031.136719 C 1331.535156 1038.265625 1337.195312 1045.671875 1342.574219 1053.5 "/>
<path style=" stroke:none;fill-rule:evenodd;fill:rgb(11.759949%,16.859436%,33.329773%);fill-opacity:1;" d="M 1492.816406 345.972656 C 1493.445312 344.15625 1494.632812 342.6875 1496.378906 341.5 C 1499.386719 343.246094 1503.019531 345.972656 1507.140625 349.535156 C 1527.40625 366.796875 1536.628906 377.835938 1534.882812 382.660156 C 1532.507812 392.164062 1522.933594 401.664062 1506.234375 411.238281 C 1487.15625 422 1470.175781 425.214844 1455.292969 421.09375 C 1450.46875 419.90625 1446.625 418.996094 1443.621094 418.4375 C 1447.183594 413.054688 1450.191406 408.234375 1452.566406 404.113281 C 1455.570312 405.300781 1457.667969 406.136719 1458.855469 406.765625 C 1470.175781 409.144531 1482.125 406.488281 1494.632812 398.730469 C 1498.195312 396.914062 1502.667969 393.910156 1508.050781 389.785156 C 1522.375 387.410156 1530.132812 383.496094 1531.320312 378.1875 C 1532.507812 373.363281 1524.121094 370.359375 1506.234375 369.242188 C 1505.675781 368.613281 1505.046875 367.984375 1504.484375 367.425781 C 1500.292969 362.042969 1494.914062 357.570312 1488.34375 354.007812 C 1490.160156 351.003906 1491.628906 348.347656 1492.816406 345.972656 "/>
<path style=" stroke:none;fill-rule:evenodd;fill:rgb(96.859741%,55.688477%,35.688782%);fill-opacity:1;" d="M 1316.652344 502.5 C 1316.652344 501.871094 1316.300781 501.59375 1315.742188 501.59375 C 1310.363281 495.582031 1306.796875 490.550781 1304.980469 486.359375 C 1303.792969 482.167969 1303.792969 478.042969 1304.980469 473.851562 C 1306.167969 470.289062 1309.800781 464.90625 1315.742188 457.777344 C 1316.300781 457.777344 1316.652344 457.429688 1316.652344 456.871094 C 1322.589844 465.816406 1327.972656 472.664062 1332.722656 477.414062 C 1348.234375 490.550781 1361.652344 501.242188 1372.972656 509.628906 C 1373.601562 510.1875 1374.441406 511.097656 1375.628906 512.355469 C 1373.882812 513.472656 1371.507812 514.660156 1368.5 515.917969 L 1367.59375 515.917969 C 1365.847656 516.476562 1364.027344 517.105469 1362.210938 517.664062 C 1361.652344 517.664062 1361.023438 517.664062 1360.464844 517.664062 C 1353.894531 518.851562 1349.425781 518.851562 1347.046875 517.664062 C 1341.109375 516.476562 1334.820312 514.101562 1328.25 510.539062 C 1324.058594 507.53125 1320.214844 504.878906 1316.652344 502.5 Z M 1243.277344 495.304688 C 1240.902344 494.117188 1238.804688 493.207031 1236.988281 492.648438 C 1206.589844 480.699219 1178.011719 470.566406 1151.175781 462.25 C 1123.714844 454.496094 1102.539062 450.300781 1087.65625 449.742188 C 1093.597656 437.792969 1098.699219 427.941406 1102.820312 420.183594 C 1112.394531 405.859375 1118.054688 397.195312 1119.871094 394.257812 L 1124.34375 378.1875 C 1146.355469 389.4375 1163.964844 400.546875 1177.101562 411.238281 C 1192.613281 423.746094 1203.027344 432.691406 1208.40625 438.074219 C 1219.097656 445.828125 1226.855469 453.585938 1231.675781 461.34375 C 1238.246094 472.105469 1242.089844 483.355469 1243.277344 495.304688 "/>
<path style=" stroke:none;fill-rule:evenodd;fill:rgb(94.509888%,24.308777%,65.879822%);fill-opacity:1;" d="M 1268.292969 1576.683594 C 1258.789062 1577.875 1249.21875 1578.503906 1239.714844 1578.503906 C 1198.554688 1577.3125 1150.546875 1562.988281 1095.691406 1535.527344 C 1092.128906 1533.78125 1088.214844 1531.683594 1084.09375 1529.308594 C 1075.707031 1525.113281 1067.390625 1520.921875 1059.007812 1516.800781 C 1041.117188 1505.480469 1024.136719 1494.4375 1008.0625 1483.675781 C 981.230469 1464.597656 959.777344 1444.894531 943.636719 1424.628906 C 934.132812 1411.5625 926.375 1398.421875 920.367188 1385.285156 C 916.800781 1362.015625 916.800781 1339.097656 920.367188 1316.386719 C 922.183594 1307.441406 924 1298.496094 925.746094 1289.550781 C 936.507812 1253.214844 948.109375 1217.4375 960.617188 1182.285156 C 971.378906 1155.453125 974.382812 1129.527344 969.5625 1104.441406 C 967.183594 1092.492188 962.992188 1080.890625 957.050781 1069.570312 C 939.792969 1034.980469 923.371094 999.203125 907.855469 962.238281 C 891.785156 927.019531 876.832031 890.679688 863.132812 853.085938 C 856.007812 834.007812 850.90625 814.652344 847.96875 794.945312 C 846.152344 782.996094 844.964844 770.488281 844.335938 757.421875 C 843.148438 744.285156 843.148438 731.148438 844.335938 718.078125 C 844.964844 703.125 846.433594 688.519531 848.808594 674.195312 C 851.183594 661.6875 853.910156 649.457031 856.914062 637.578125 C 866.417969 601.800781 883.398438 568.675781 907.855469 538.28125 C 930.5 512.003906 957.050781 491.742188 987.449219 477.414062 C 987.449219 478.042969 987.449219 478.882812 987.449219 480.140625 C 987.449219 480.699219 987.449219 481.886719 987.449219 483.703125 C 987.449219 487.828125 988.078125 492.300781 989.265625 497.121094 C 993.460938 515.011719 1007.714844 531.363281 1032.171875 546.316406 C 1048.316406 555.820312 1071.863281 566.582031 1102.820312 578.53125 C 1120.148438 584.46875 1139.226562 590.410156 1160.121094 596.417969 C 1181.015625 602.640625 1218.609375 614.867188 1272.765625 633.105469 C 1280.59375 635.621094 1288.628906 638.277344 1296.945312 641.140625 C 1294.570312 642.332031 1292.753906 643.167969 1291.5625 643.796875 C 1282.0625 647.363281 1273.117188 651.832031 1264.730469 657.214844 C 1240.691406 671.820312 1218.890625 691.664062 1199.464844 716.679688 C 1197.296875 719.546875 1195.199219 722.550781 1193.175781 725.625 C 1187.863281 732.824219 1182.832031 740.441406 1178.011719 748.476562 C 1171.441406 760.355469 1165.433594 771.746094 1160.121094 782.4375 C 1149.988281 805.707031 1144.886719 825.972656 1144.886719 843.304688 C 1144.886719 850.429688 1145.167969 857.558594 1145.796875 864.753906 C 1148.800781 938.6875 1169.34375 1024.21875 1207.5 1121.421875 C 1218.261719 1148.253906 1232.515625 1184.035156 1250.40625 1228.757812 C 1263.542969 1263.347656 1270.109375 1289.273438 1270.109375 1306.601562 C 1270.109375 1311.914062 1267.457031 1326.238281 1262.074219 1349.507812 C 1256.695312 1369.214844 1253.410156 1383.46875 1252.222656 1392.414062 C 1252.222656 1394.859375 1252.222656 1396.605469 1252.222656 1397.792969 C 1252.222656 1437.765625 1253.410156 1472.914062 1255.785156 1503.382812 C 1256.972656 1514.074219 1258.511719 1524.207031 1260.257812 1533.78125 C 1262.074219 1549.292969 1264.730469 1563.546875 1268.292969 1576.683594 Z M 1484.78125 1051.683594 C 1475.835938 1029.601562 1467.519531 1006.960938 1459.761719 983.691406 C 1469.894531 974.746094 1480.027344 964.613281 1490.160156 953.292969 C 1500.992188 942.878906 1510.984375 932.398438 1520.140625 921.988281 C 1523.074219 918.5625 1525.9375 915.070312 1528.59375 911.714844 C 1529.574219 910.597656 1530.480469 909.617188 1531.320312 908.570312 C 1533.695312 905.007812 1536.070312 901.722656 1538.449219 898.71875 C 1537.886719 896.96875 1537.257812 894.804688 1536.628906 892.496094 C 1540.753906 904.308594 1544.039062 914.160156 1546.484375 921.988281 C 1549.347656 930.722656 1551.304688 937.011719 1552.285156 940.785156 C 1552.5625 941.0625 1552.703125 941.34375 1552.773438 941.691406 C 1553.332031 947.003906 1555.777344 953.851562 1559.902344 962.238281 C 1558.152344 966.359375 1556.058594 969.992188 1553.679688 973 C 1551.304688 976.5625 1549.207031 979.777344 1547.390625 982.78125 C 1528.945312 1011.992188 1508.050781 1034.980469 1484.78125 1051.683594 Z M 1380.101562 672.449219 C 1390.933594 678.25 1400.015625 683.347656 1407.425781 687.613281 C 1414.410156 691.945312 1419.933594 695.507812 1423.984375 698.375 C 1430.832031 703.195312 1439.917969 711.71875 1451.238281 723.878906 C 1456.550781 729.75 1462.347656 736.457031 1468.707031 744.003906 C 1476.046875 753.019531 1482.125 761.054688 1487.015625 768.113281 C 1494.492188 778.734375 1499.105469 787.050781 1500.851562 793.199219 C 1504.136719 801.445312 1510.214844 818.636719 1519.230469 844.628906 C 1521.746094 852.316406 1524.613281 860.84375 1527.6875 870.136719 L 1528.59375 870.976562 C 1526.21875 874.609375 1523.84375 877.824219 1521.46875 880.828125 C 1516.644531 886.90625 1511.613281 892.847656 1506.234375 898.71875 C 1503.367188 902.140625 1500.363281 905.566406 1497.289062 908.988281 C 1493.027344 913.601562 1488.554688 918.214844 1483.871094 922.894531 C 1472.550781 934.214844 1460.953125 944.90625 1449.003906 955.109375 C 1444.808594 944.347656 1439.777344 934.214844 1433.769531 924.640625 C 1417.136719 896.0625 1394.425781 871.882812 1365.847656 852.246094 C 1316.929688 819.402344 1263.820312 811.367188 1206.589844 828.070312 C 1201.210938 829.886719 1195.898438 831.632812 1190.519531 833.449219 C 1191.078125 827.441406 1191.984375 821.78125 1193.175781 816.46875 C 1196.738281 789.636719 1203.167969 765.316406 1212.390625 743.515625 C 1214.066406 739.390625 1215.886719 735.410156 1217.773438 731.496094 C 1221.265625 724.578125 1225.039062 718.078125 1228.953125 711.789062 C 1247.46875 680.765625 1274.304688 661.6875 1309.453125 654.558594 C 1310.710938 654.28125 1311.898438 654.140625 1313.015625 654.070312 C 1315.460938 653.789062 1318.046875 653.652344 1320.632812 653.652344 C 1334.121094 653.929688 1350.683594 658.402344 1370.316406 667.066406 C 1373.882812 668.882812 1377.167969 670.632812 1380.101562 672.449219 Z M 831.828125 659.941406 C 823.511719 654.558594 814.570312 647.992188 804.996094 640.234375 C 806.183594 625.28125 808 610.394531 810.375 595.511719 C 816.316406 554.351562 831.269531 522.136719 855.097656 498.9375 C 881.304688 472.664062 912.609375 456.519531 949.015625 450.582031 C 984.164062 445.269531 1017.847656 450.023438 1050.0625 464.90625 L 1039.371094 471.195312 C 1035.734375 471.753906 1031.894531 472.664062 1027.699219 473.851562 L 1025.953125 473.851562 C 1021.761719 472.105469 1017.566406 470.566406 1013.375 469.378906 L 996.394531 472.105469 C 954.675781 475.667969 920.085938 493.207031 892.695312 524.863281 C 869.421875 552.882812 852.441406 584.46875 841.679688 619.6875 C 837.488281 633.386719 834.203125 646.800781 831.828125 659.941406 Z M 825.609375 704.664062 C 824.980469 714.726562 824.351562 725.765625 823.792969 737.714844 C 823.164062 754.417969 823.792969 771.117188 825.609375 787.820312 C 823.164062 786.628906 820.789062 785.441406 818.410156 784.253906 C 813.660156 781.808594 808.90625 778.875 804.085938 775.308594 C 802.339844 772.863281 800.242188 770.488281 797.867188 768.113281 C 796.679688 752.597656 796.679688 735.96875 797.867188 718.078125 C 798.425781 706.128906 799.054688 694.460938 799.613281 683.140625 C 800.800781 683.769531 801.710938 684.605469 802.339844 685.863281 C 810.097656 692.363281 817.851562 698.652344 825.609375 704.664062 "/>
<g clip-path="url(#clip2)" clip-rule="nonzero">
<path style=" stroke:none;fill-rule:evenodd;fill:rgb(100%,100%,100%);fill-opacity:1;" d="M 1160.121094 2561.492188 L 1152.921875 2548.984375 L 1151.175781 2513.207031 C 1154.113281 2515.582031 1160.402344 2519.148438 1169.90625 2523.96875 C 1186.046875 2532.914062 1195.550781 2540.039062 1198.554688 2545.421875 C 1193.175781 2553.738281 1182.132812 2559.398438 1165.433594 2562.402344 C 1164.875 2562.402344 1163.054688 2562.121094 1160.121094 2561.492188 Z M 1536.628906 892.496094 C 1537.257812 894.804688 1537.886719 896.96875 1538.449219 898.71875 C 1536.070312 901.722656 1533.695312 905.007812 1531.320312 908.570312 C 1530.480469 909.617188 1529.574219 910.597656 1528.59375 911.714844 C 1525.9375 915.070312 1523.074219 918.5625 1520.140625 921.988281 C 1510.984375 932.398438 1500.992188 942.878906 1490.160156 953.292969 C 1480.027344 964.613281 1469.894531 974.746094 1459.761719 983.691406 C 1427.550781 1012.339844 1397.152344 1032.605469 1368.5 1044.554688 C 1359.554688 1048.117188 1350.890625 1051.054688 1342.574219 1053.5 C 1337.195312 1045.671875 1331.535156 1038.265625 1325.59375 1031.136719 C 1332.164062 1028.132812 1338.382812 1025.128906 1344.324219 1022.195312 C 1346.140625 1021.566406 1347.957031 1020.9375 1349.703125 1020.375 C 1386.109375 1001.859375 1419.164062 980.125 1449.003906 955.109375 C 1460.953125 944.90625 1472.550781 934.214844 1483.871094 922.894531 C 1488.554688 918.214844 1493.027344 913.601562 1497.289062 908.988281 C 1500.363281 905.566406 1503.367188 902.140625 1506.234375 898.71875 C 1511.613281 892.847656 1516.644531 886.90625 1521.46875 880.828125 C 1523.84375 877.824219 1526.21875 874.609375 1528.59375 870.976562 Z M 1357.738281 645.125 C 1365.148438 654.210938 1371.714844 662.175781 1377.445312 668.882812 C 1373.882812 665.878906 1369.128906 662.59375 1363.121094 659.03125 C 1358.367188 657.214844 1353.265625 654.839844 1347.957031 651.832031 C 1343.765625 650.085938 1339.851562 648.410156 1336.285156 646.941406 C 1333.003906 645.753906 1329.996094 644.707031 1327.34375 643.796875 C 1324.828125 642.539062 1322.449219 641.769531 1320.214844 641.5625 C 1319.304688 641.28125 1318.398438 641.140625 1317.488281 641.140625 L 1309.453125 638.417969 C 1300.648438 635.132812 1291.285156 631.707031 1281.292969 628.144531 C 1241.601562 613.332031 1193.734375 595.929688 1137.761719 575.804688 C 1127.628906 571.613281 1117.773438 568.046875 1108.199219 565.113281 C 1055.164062 544.21875 1022.320312 525.773438 1009.8125 509.628906 C 1004.429688 502.5 1000.585938 496.210938 998.210938 490.832031 C 995.207031 486.082031 994.019531 482.515625 994.648438 480.140625 C 994.648438 476.578125 995.207031 473.851562 996.394531 472.105469 L 1013.375 469.378906 C 1017.566406 470.566406 1021.761719 472.105469 1025.953125 473.851562 L 1026.792969 473.851562 C 1050.0625 482.796875 1073.609375 492.019531 1097.507812 501.59375 C 1117.773438 509.351562 1137.761719 518.292969 1157.394531 528.425781 C 1207.917969 551.695312 1260.117188 578.671875 1313.925781 609.347656 C 1316.582031 611.023438 1319.234375 612.703125 1321.960938 614.308594 C 1325.386719 616.265625 1328.808594 618.5 1332.304688 621.015625 C 1336.285156 623.53125 1340.269531 626.328125 1344.324219 629.472656 C 1346.769531 631.847656 1348.796875 634.574219 1350.613281 637.578125 C 1350.613281 638.136719 1351.242188 638.417969 1352.429688 638.417969 C 1354.316406 640.792969 1356.0625 643.027344 1357.738281 645.125 Z M 804.996094 640.234375 C 814.570312 647.992188 823.511719 654.558594 831.828125 659.941406 C 828.824219 674.824219 826.796875 689.707031 825.609375 704.664062 C 817.851562 698.652344 810.097656 692.363281 802.339844 685.863281 C 801.710938 684.605469 800.800781 683.769531 799.613281 683.140625 C 800.800781 676.011719 801.710938 668.253906 802.339844 659.941406 L 804.085938 650.085938 C 804.085938 646.523438 804.4375 643.167969 804.996094 640.234375 Z M 940.980469 2788.671875 C 986.261719 2797.617188 1027.699219 2790.207031 1065.296875 2766.308594 C 1067.042969 2765.121094 1068.578125 2764.214844 1069.765625 2763.65625 L 1100.164062 2737.730469 L 1101.980469 2736.820312 C 1106.734375 2732.628906 1110.578125 2728.433594 1113.582031 2724.3125 C 1091.5 2822.074219 1038.183594 2850.445312 953.488281 2809.285156 C 945.101562 2805.09375 940.980469 2798.246094 940.980469 2788.671875 Z M 1133.289062 2689.441406 L 1144.886719 2660.792969 L 1150.269531 2648.285156 L 1218.261719 2589.234375 L 1219.097656 2609.78125 Z M 1583.171875 2749.328125 C 1587.992188 2758.902344 1590.296875 2769.035156 1590.296875 2779.726562 C 1590.296875 2796.429688 1589.460938 2805.09375 1587.640625 2805.722656 C 1586.453125 2806.28125 1583.519531 2806.839844 1578.699219 2807.46875 C 1576.320312 2805.09375 1568.84375 2790.765625 1556.335938 2764.5625 C 1553.960938 2760.371094 1550.957031 2756.175781 1547.390625 2752.054688 C 1560.53125 2750.238281 1572.410156 2749.328125 1583.171875 2749.328125 Z M 1323.777344 2945.199219 C 1348.796875 2941.007812 1373.601562 2936.535156 1397.988281 2931.785156 C 1427.828125 2927.589844 1457.386719 2925.84375 1486.597656 2926.472656 C 1559.339844 2934.160156 1617.761719 2917.808594 1661.855469 2877.277344 C 1669.609375 2869.453125 1676.179688 2861.414062 1681.558594 2853.101562 C 1688.128906 2845.972656 1694.070312 2838.144531 1699.449219 2829.828125 C 1700.078125 2852.472656 1690.226562 2873.921875 1669.960938 2894.257812 C 1650.253906 2913.894531 1626.703125 2927.03125 1599.242188 2933.601562 C 1581.351562 2936.535156 1550.957031 2938.351562 1508.050781 2938.980469 C 1468.078125 2940.726562 1437.050781 2944.011719 1415.039062 2948.835938 L 1415.039062 2978.324219 C 1406.65625 2979.511719 1389.953125 2983.074219 1364.9375 2989.085938 C 1340.480469 2994.394531 1321.960938 2997.679688 1309.453125 2998.867188 C 1267.734375 3002.5 1238.804688 2981.886719 1222.734375 2937.164062 C 1236.429688 2952.679688 1256.414062 2958.898438 1282.621094 2955.960938 C 1294.570312 2954.773438 1308.265625 2951.210938 1323.777344 2945.199219 Z M 1508.957031 2777.980469 L 1494.632812 2749.328125 L 1501.761719 2749.328125 C 1517.902344 2766.589844 1525.9375 2783.917969 1525.9375 2801.25 C 1525.9375 2819.136719 1525.378906 2830.457031 1524.121094 2835.210938 C 1522.933594 2837.585938 1520.90625 2841.5 1517.902344 2846.8125 L 1504.484375 2846.8125 C 1501.480469 2843.246094 1498.195312 2839.054688 1494.632812 2834.300781 C 1495.820312 2832.554688 1496.730469 2831.019531 1497.289062 2829.828125 L 1500.015625 2819.136719 C 1504.765625 2810.753906 1507.492188 2802.089844 1508.050781 2793.144531 L 1509.796875 2787.832031 C 1509.796875 2784.199219 1509.515625 2780.914062 1508.957031 2777.980469 "/>
</g>
<g clip-path="url(#clip3)" clip-rule="nonzero">
<g clip-path="url(#clip4)" clip-rule="nonzero">
<path style=" stroke:none;fill-rule:nonzero;fill:rgb(19.219971%,11.369324%,8.239746%);fill-opacity:1;" d="M 1038.8125 250.308594 L 1037.554688 250.097656 L 1037.203125 252.894531 L 1038.460938 253.03125 Z M 1038.8125 250.308594 "/>
</g>
</g>
<path style=" stroke:none;fill-rule:evenodd;fill:rgb(53.729248%,76.469421%,92.549133%);fill-opacity:1;" d="M 1039.371094 471.195312 L 1050.0625 464.90625 L 1075.148438 448.835938 C 1076.335938 448.835938 1077.246094 448.835938 1077.804688 448.835938 C 1080.808594 448.835938 1084.09375 449.113281 1087.65625 449.742188 C 1102.539062 450.300781 1123.714844 454.496094 1151.175781 462.25 C 1178.011719 470.566406 1206.589844 480.699219 1236.988281 492.648438 C 1238.804688 493.207031 1240.902344 494.117188 1243.277344 495.304688 C 1253.410156 498.308594 1263.820312 502.152344 1274.582031 506.972656 L 1274.582031 507.882812 L 1279.964844 522.136719 L 1314.832031 604.457031 L 1313.015625 608.019531 C 1305.890625 603.269531 1298.761719 598.445312 1291.5625 593.695312 C 1256.414062 570.496094 1218.539062 548.972656 1178.011719 529.335938 C 1149.359375 515.011719 1119.242188 501.871094 1087.65625 489.992188 C 1074.519531 484.613281 1060.824219 479.230469 1046.496094 473.851562 C 1044.679688 472.664062 1042.304688 471.753906 1039.371094 471.195312 "/>
<path style=" stroke:none;fill-rule:evenodd;fill:rgb(81.959534%,12.548828%,59.999084%);fill-opacity:1;" d="M 1314.832031 608.929688 C 1317.699219 610.535156 1320.074219 612.351562 1321.960938 614.308594 C 1319.234375 612.703125 1316.582031 611.023438 1313.925781 609.347656 C 1260.117188 578.671875 1207.917969 551.695312 1157.394531 528.425781 C 1137.761719 518.292969 1117.773438 509.351562 1097.507812 501.59375 C 1073.609375 492.019531 1050.0625 482.796875 1026.792969 473.851562 L 1027.699219 473.851562 C 1031.894531 472.664062 1035.734375 471.753906 1039.371094 471.195312 C 1042.304688 471.753906 1044.679688 472.664062 1046.496094 473.851562 C 1060.824219 479.230469 1074.519531 484.613281 1087.65625 489.992188 C 1119.242188 501.871094 1149.359375 515.011719 1178.011719 529.335938 C 1218.539062 548.972656 1256.414062 570.496094 1291.5625 593.695312 C 1298.761719 598.445312 1305.890625 603.269531 1313.015625 608.019531 C 1313.714844 608.367188 1314.34375 608.648438 1314.832031 608.929688 "/>
<path style=" stroke:none;fill-rule:evenodd;fill:rgb(87.059021%,7.839966%,47.059631%);fill-opacity:1;" d="M 1459.761719 983.691406 C 1467.519531 1006.960938 1475.835938 1029.601562 1484.78125 1051.683594 C 1460.324219 1069.570312 1433.210938 1080.890625 1403.371094 1085.644531 C 1394.425781 1086.273438 1385.480469 1086.550781 1376.539062 1086.550781 C 1372.972656 1086.550781 1369.410156 1086.273438 1365.847656 1085.644531 C 1358.089844 1074.953125 1350.332031 1064.191406 1342.574219 1053.5 C 1350.890625 1051.054688 1359.554688 1048.117188 1368.5 1044.554688 C 1397.152344 1032.605469 1427.550781 1012.339844 1459.761719 983.691406 Z M 1449.003906 955.109375 C 1419.164062 980.125 1386.109375 1001.859375 1349.703125 1020.375 C 1347.957031 1020.9375 1346.140625 1021.566406 1344.324219 1022.195312 C 1338.382812 1025.128906 1332.164062 1028.132812 1325.59375 1031.136719 C 1324.40625 1028.691406 1323.21875 1026.316406 1321.960938 1023.941406 C 1310.640625 1009.617188 1299.949219 996.199219 1289.816406 983.691406 C 1286.183594 979.496094 1281.429688 976.214844 1275.492188 973.835938 C 1261.167969 970.832031 1248.03125 964.613281 1236.148438 955.109375 C 1196.179688 924.640625 1180.945312 884.113281 1190.519531 833.449219 C 1195.898438 831.632812 1201.210938 829.886719 1206.589844 828.070312 C 1263.820312 811.367188 1316.929688 819.402344 1365.847656 852.246094 C 1394.425781 871.882812 1417.136719 896.0625 1433.769531 924.640625 C 1439.777344 934.214844 1444.808594 944.347656 1449.003906 955.109375 "/>
<path style=" stroke:none;fill-rule:evenodd;fill:rgb(7.449341%,11.369324%,18.429565%);fill-opacity:1;" d="M 1065.296875 2766.308594 C 1027.699219 2790.207031 986.261719 2797.617188 940.980469 2788.671875 C 912.328125 2712.921875 896.257812 2633.957031 892.695312 2551.640625 C 891.4375 2514.675781 892.695312 2477.148438 896.257812 2438.996094 C 900.378906 2389.449219 904.292969 2340.257812 907.855469 2291.410156 C 916.800781 2169.75 935.878906 2049.558594 965.089844 1930.902344 C 972.285156 1907.074219 974.382812 1882.617188 971.378906 1857.601562 C 955.304688 1727.554688 935.878906 1597.300781 913.238281 1466.695312 C 907.855469 1430.917969 906.949219 1395.140625 910.582031 1359.359375 C 912.328125 1364.742188 914.144531 1369.773438 915.894531 1374.523438 C 916.523438 1378.160156 917.988281 1381.722656 920.367188 1385.285156 C 926.375 1398.421875 934.132812 1411.5625 943.636719 1424.628906 C 959.777344 1444.894531 981.230469 1464.597656 1008.0625 1483.675781 C 1024.136719 1494.4375 1041.117188 1505.480469 1059.007812 1516.800781 C 1067.390625 1520.921875 1075.707031 1525.113281 1084.09375 1529.308594 C 1097.789062 1579.96875 1112.671875 1630.074219 1128.816406 1679.546875 C 1121.617188 1732.65625 1108.550781 1825.035156 1089.402344 1956.828125 C 1059.636719 2180.441406 1044.679688 2319.082031 1044.679688 2372.75 C 1044.679688 2376.382812 1044.679688 2404.683594 1044.679688 2457.722656 C 1044.679688 2460.097656 1044.679688 2462.824219 1044.679688 2465.828125 C 1045.308594 2523.058594 1047.125 2575.820312 1050.0625 2624.105469 C 1053.625 2681.964844 1058.726562 2729.34375 1065.296875 2766.308594 "/>
<path style=" stroke:none;fill-rule:evenodd;fill:rgb(47.44873%,64.309692%,86.268616%);fill-opacity:1;" d="M 1151.175781 2513.207031 L 1151.175781 2511.390625 L 1148.453125 2485.464844 L 1221.824219 2493.5 L 1218.261719 2589.234375 L 1150.269531 2648.285156 L 1156.488281 2617.886719 L 1167.25 2569.53125 L 1160.121094 2561.492188 C 1163.054688 2562.121094 1164.875 2562.402344 1165.433594 2562.402344 C 1182.132812 2559.398438 1193.175781 2553.738281 1198.554688 2545.421875 C 1195.550781 2540.039062 1186.046875 2532.914062 1169.90625 2523.96875 C 1160.402344 2519.148438 1154.113281 2515.582031 1151.175781 2513.207031 Z M 1547.390625 2752.054688 C 1550.957031 2756.175781 1553.960938 2760.371094 1556.335938 2764.5625 C 1568.84375 2790.765625 1576.320312 2805.09375 1578.699219 2807.46875 C 1583.519531 2806.839844 1586.453125 2806.28125 1587.640625 2805.722656 C 1589.460938 2805.09375 1590.296875 2796.429688 1590.296875 2779.726562 C 1590.296875 2769.035156 1587.992188 2758.902344 1583.171875 2749.328125 C 1631.457031 2749.328125 1671.425781 2765.472656 1703.011719 2797.617188 C 1709.023438 2804.183594 1709.300781 2812.847656 1703.921875 2823.609375 C 1702.105469 2825.988281 1700.636719 2828.082031 1699.449219 2829.828125 C 1694.070312 2838.144531 1688.128906 2845.972656 1681.558594 2853.101562 C 1676.179688 2861.414062 1669.609375 2869.453125 1661.855469 2877.277344 C 1617.761719 2917.808594 1559.339844 2934.160156 1486.597656 2926.472656 C 1457.386719 2925.84375 1427.828125 2927.589844 1397.988281 2931.785156 C 1373.601562 2936.535156 1348.796875 2941.007812 1323.777344 2945.199219 C 1326.15625 2944.011719 1329.160156 2943.105469 1332.722656 2942.546875 C 1344.042969 2937.164062 1355.363281 2931.785156 1366.683594 2926.472656 C 1399.527344 2910.960938 1429.644531 2890.695312 1457.039062 2865.609375 C 1473.738281 2857.292969 1486.246094 2846.8125 1494.632812 2834.300781 C 1498.195312 2839.054688 1501.480469 2843.246094 1504.484375 2846.8125 L 1517.902344 2846.8125 C 1520.90625 2841.5 1522.933594 2837.585938 1524.121094 2835.210938 C 1525.378906 2830.457031 1525.9375 2819.136719 1525.9375 2801.25 C 1525.9375 2783.917969 1517.902344 2766.589844 1501.761719 2749.328125 L 1513.429688 2750.238281 L 1511.613281 2759.183594 C 1524.121094 2755.617188 1536.070312 2753.171875 1547.390625 2752.054688 "/>
<path style=" stroke:none;fill-rule:evenodd;fill:rgb(48.239136%,35.688782%,24.708557%);fill-opacity:1;" d="M 1156.488281 2617.886719 L 1144.886719 2660.792969 L 1167.25 2569.53125 Z M 1156.488281 2617.886719 "/>
<path style=" stroke:none;fill-rule:evenodd;fill:rgb(83.918762%,87.449646%,95.289612%);fill-opacity:1;" d="M 1508.957031 2777.980469 C 1509.515625 2780.914062 1509.796875 2784.199219 1509.796875 2787.832031 L 1508.050781 2793.144531 C 1508.609375 2788.390625 1508.957031 2783.359375 1508.957031 2777.980469 Z M 1494.632812 2834.300781 C 1486.246094 2846.8125 1473.738281 2857.292969 1457.039062 2865.609375 C 1463.046875 2861.414062 1468.078125 2857.292969 1472.273438 2853.101562 C 1485.410156 2842.96875 1494.632812 2831.648438 1500.015625 2819.136719 L 1497.289062 2829.828125 C 1496.730469 2831.019531 1495.820312 2832.554688 1494.632812 2834.300781 Z M 1144.886719 2660.792969 L 1156.488281 2617.886719 L 1150.269531 2648.285156 Z M 1144.886719 2660.792969 "/>
</g>
</svg>
